<svg width="1920" height="2642" viewBox="0 0 1920 2642" fill="none" xmlns="http://www.w3.org/2000/svg">
<path d="M-3629.36 421.809C-3297.29 392.024 -2882.62 429.679 -2587.01 492.15C-2291.4 554.622 -2089.88 638.296 -1894.61 719.778C-1704.88 799.102 -1461.98 887.997 -1102.14 904.288C-766.034 919.337 -478.464 860.246 -339.154 790.51C-199.845 720.774 -161.246 639.149 -42.2774 566.822C76.7581 494.328 315.575 427.086 649.596 426.077C947.908 425.235 1226.66 476.474 1518.04 503.433C2168.79 563.795 2839.7 499.83 3386.13 421.035C3932.57 342.24 4469.08 245.62 5132.48 237.421" stroke="url(#paint0_linear_12007_4472)" stroke-opacity="0.3" stroke-miterlimit="10"/>
<path d="M-3646.07 410.348C-3318.83 379.862 -2911.51 414.033 -2615.27 472.715C-2319.03 531.397 -2110.99 610.874 -1909.65 689.323C-1747.19 752.867 -1549.82 823.487 -1285.04 855.963C-1232.08 862.459 -1176.36 867.405 -1117.75 870.469C-788.387 887.691 -507.743 834.952 -358.571 770.765C-208.5 706.117 -150.91 626.979 -23.7514 555.543C-9.87009 547.631 6.10513 539.828 22.7776 532.061C156.789 470.13 379.343 416.556 676.524 414.648C753.694 414.11 830.156 417.092 905.748 422.23C1122.75 437.134 1333.09 470.321 1549.22 490.938C1779.73 512.984 2012.58 520.417 2242.23 516.334C2598.18 510.047 2943.28 475.922 3253.04 434.021C3310.29 426.344 3366.21 418.428 3420.81 410.272C3664.08 374.211 3905.21 334.65 4159.9 302.065C4475.47 261.654 4814.17 232.784 5173.73 233.461" stroke="url(#paint1_linear_12007_4472)" stroke-opacity="0.3" stroke-miterlimit="10"/>
<path d="M-3662.14 398.903C-3340.49 367.851 -2939.07 398.454 -2642.12 453.19C-2345.18 507.926 -2129.98 583.418 -1923.29 658.804C-1755.72 719.972 -1556.11 788.224 -1296.11 821.586C-1243.94 828.2 -1189.08 833.432 -1132.09 836.916C-809.461 856.302 -535.037 809.933 -375.945 751.115C-215.19 691.708 -139.257 614.851 -3.21674 544.346C12.0538 536.52 28.0219 528.73 45.3179 521.179C184.719 459.98 408.638 406.408 705.388 403.476C782.59 402.774 859.151 405.42 935.539 410.255C1154.17 424.379 1365.88 457.417 1583.03 478.734C1813.86 501.442 2046.63 510.556 2277.94 507.419C2637.45 502.523 2983.56 467.337 3292.25 424.28C3348.85 416.414 3404.88 408.181 3458.82 399.838C3700.99 362.775 3941.64 322.42 4198.25 290.169C4516.41 250.142 4865.25 224.061 5217.61 229.782" stroke="url(#paint2_linear_12007_4472)" stroke-opacity="0.3" stroke-miterlimit="10"/>
<path d="M-3678.86 387.407C-3362.04 355.662 -2968.03 382.966 -2670.38 433.768C-2372.73 484.569 -2151.02 555.882 -1937.64 628.449C-1764.9 687.081 -1563.89 753.264 -1307.13 787.248C-1255.75 793.979 -1202.44 799.46 -1146.31 803.233C-830.406 824.774 -562.895 784.719 -393.958 731.42C-222.461 677.074 -127.57 602.697 16.6468 533.088C32.6083 525.312 49.897 517.775 67.95 510.109C212.737 449.643 437.39 395.875 733.644 392.088C810.946 391.057 887.606 393.368 964.723 398.066C1185.69 411.449 1398.05 444.299 1615.54 466.277C1846 489.607 2079.39 500.431 2311.72 498.035C2674.08 494.49 3021.2 458.249 3328.77 414.207C3385.41 406.191 3440.78 397.772 3494.76 389.279C3736.47 351.422 3975.96 310.243 4235.24 278.197C4555.98 238.556 4915.65 215.291 5260.83 226.039" stroke="url(#paint3_linear_12007_4472)" stroke-opacity="0.3" stroke-miterlimit="10"/>
<path d="M-3695.03 376.105C-3383.71 343.637 -2996.34 367.524 -2698.05 414.568C-2399.76 461.611 -2170.84 528.795 -1952.11 598.311C-1774.26 654.579 -1571.08 718.568 -1318.96 753.099C-1268.36 759.946 -1215.91 765.711 -1161.33 769.734C-852.777 793.221 -590.776 759.531 -412.767 711.863C-229.84 662.598 -117.401 590.623 35.6171 522.111C52.2023 514.552 70.2485 506.9 88.9242 499.45C239.093 439.718 464.417 385.922 761.009 380.989C838.41 379.631 915.17 381.608 993.017 386.169C1215.61 398.776 1429.34 431.475 1647.79 454.311C1878.57 478.296 2111.89 490.788 2345.94 489.167C2711.16 486.967 3060.06 449.549 3365.8 404.492C3421.85 396.125 3477.27 387.556 3531.3 378.915C3771.91 340.068 4010.24 298.069 4272.13 266.395C4595.45 227.139 4965.31 206.481 5303.25 222.402" stroke="url(#paint4_linear_12007_4472)" stroke-opacity="0.3" stroke-miterlimit="10"/>
<path d="M-3711.17 364.614C-3404.72 331.626 -3023.91 351.944 -2724.98 395.241C-2425.98 438.374 -2190.62 501.569 -1965.14 568.117C-1782.89 621.99 -1577.47 683.627 -1328.71 719.102C-1279.6 726.029 -1227.94 731.912 -1174.34 736.55C-872.434 762.01 -615.938 734.663 -429.558 692.57C-234.513 648.406 -104.54 578.829 56.6431 511.211C74.6149 503.739 93.2835 496.303 112.648 488.903C268.197 429.904 494.889 376.121 790.363 370.139C867.798 368.619 945.355 370.3 1023.37 374.359C1247.52 386.357 1461.99 418.703 1681.47 442.228C1912.58 466.864 2145.82 481.017 2381.53 480.333C2750.3 479.51 3100.22 441.05 3404.22 394.819C3460.31 386.303 3515.08 377.55 3569.22 368.597C3809.36 328.965 4046.54 286.152 4311.11 254.685C4637.08 215.651 5017.68 197.956 5347.77 218.829" stroke="url(#paint5_linear_12007_4472)" stroke-opacity="0.3" stroke-miterlimit="10"/>
<path d="M-3727.97 353C-3427.01 319.293 -3052.88 336.384 -2753.16 375.623C-2453.51 415.027 -2210.93 474.123 -1980.11 537.644C-1792.69 589.008 -1585.16 648.633 -1341.01 684.649C-1292.69 691.692 -1242.57 697.821 -1189.82 702.743C-894.612 730.335 -642.845 709.178 -448.727 672.437C-241.568 633.352 -94.7695 566.123 75.2739 499.43C93.9355 492.008 113.294 484.621 133.281 477.436C294.21 419.165 521.646 365.189 817.404 358.234C894.942 356.389 972.603 357.739 1051.35 361.662C1277.84 372.928 1492.98 405.087 1713.49 429.301C1944.94 454.587 2178.18 470.231 2414.85 470.444C2786.49 470.957 3137.44 431.455 3441.1 384.125C3496.54 375.425 3551.35 366.524 3604.84 357.387C3843.9 316.771 4080.62 273.18 4347.18 241.882C4675.74 203.231 5066.54 188.122 5389.41 214.131" stroke="url(#paint6_linear_12007_4472)" stroke-opacity="0.3" stroke-miterlimit="10"/>
<path d="M-3744.15 341.408C-3447.98 307.022 -3081.14 320.697 -2780.77 356.219C-2480.4 391.741 -2231.38 446.879 -1994.51 507.417C-1801.99 556.44 -1592.98 613.858 -1352.05 650.483C-1304.51 657.641 -1255.24 664.051 -1204.04 669.22C-915.521 698.934 -668.546 684.108 -466.696 652.702C-246.737 618.717 -83.1241 553.831 95.0104 488.192C114.991 481.02 135.037 473.684 155.714 466.548C322.019 409.006 550.135 355.006 846.179 347.082C923.754 345.077 1001.52 346.097 1081.06 349.722C1309.19 360.219 1525.7 392.228 1747.25 417.126C1979.03 443.058 2212.21 460.351 2450.54 461.494C2825.05 463.338 3177.72 422.838 3479.57 374.507C3535.06 365.659 3589.29 356.412 3642.83 347.128C3881.44 305.735 4117.01 261.336 4386.25 230.243C4718.1 192.013 5119.01 179.647 5434.75 210.605" stroke="url(#paint7_linear_12007_4472)" stroke-opacity="0.3" stroke-miterlimit="10"/>
<path d="M-3761.13 329.786C-3469.8 294.885 -3109.47 305.03 -2808.44 336.851C-2507.41 368.672 -2251.18 419.742 -2008.26 477.313C-1811.26 523.809 -1599.44 579.266 -1362.48 616.629C-1315.79 624.065 -1268 630.556 -1218.41 636.135C-936.562 667.965 -694.369 659.447 -484.787 633.352C-252.032 604.446 -72.2424 541.691 113.982 477.096C134.652 469.974 155.321 462.851 176.686 455.765C348.302 399.108 577.237 344.753 872.814 335.991C950.495 333.663 1028.36 334.354 1108.64 337.845C1338.41 347.579 1556.24 379.602 1778.19 404.984C2010.32 431.562 2243.44 450.499 2482.81 452.369C2860.19 455.539 3213.91 414.005 3514.73 364.546C3569.57 355.515 3623.85 346.121 3677.43 336.691C3914.97 294.32 4150.1 249.149 4421.27 218.387C4755.72 180.537 5166.82 170.738 5475.29 206.958" stroke="url(#paint8_linear_12007_4472)" stroke-opacity="0.3" stroke-miterlimit="10"/>
<path d="M-3777.46 318.119C-3491.59 282.503 -3137.9 289.458 -2836.13 317.429C-2534.36 345.401 -2271.68 392.549 -2022.71 447.166C-1820.6 491.346 -1607.24 544.455 -1374.24 582.554C-1328.32 590.106 -1281.37 596.876 -1233.33 602.701C-958.143 636.641 -719.333 634.478 -503.41 613.604C-257.167 589.792 -61.2751 529.321 133.106 465.6C154.464 458.526 176.518 451.488 198.572 444.45C374.872 388.473 605.888 334.16 901.14 324.236C978.928 321.585 1057.6 321.984 1137.98 325.143C1369.33 334.279 1588.61 365.993 1811.55 392.222C2043.33 419.408 2277.09 440.02 2518.2 442.651C2899.16 447.178 3253.92 404.611 3553.03 353.989C3607.92 344.811 3661.62 335.071 3715.25 325.495C3952.43 282.183 4186.36 236.367 4460.22 205.805C4797.34 168.168 5219.19 161.29 5519.85 202.392" stroke="url(#paint9_linear_12007_4472)" stroke-opacity="0.3" stroke-miterlimit="10"/>
<path d="M-3794.67 306.463C-3513.55 270.17 -3167.12 273.747 -2864.6 297.883C-2562.09 322.019 -2292.26 365.294 -2037.23 416.97C-1830.02 458.842 -1614.47 509.81 -1385.42 548.645C-1340.28 556.31 -1294.81 563.16 -1247.74 569.592C-979.216 605.635 -744.479 609.771 -521.456 593.97C-261.865 575.561 -50.4383 517.003 152.725 454.351C175.468 447.362 197.449 440.499 220.887 433.546C402.564 378.282 634.273 323.938 929.138 313.018C1006.27 310.173 1085.75 310.282 1166.94 313.145C1400.63 321.559 1620.6 353.092 1843.89 379.965C2076.02 407.795 2309.73 430.04 2552.52 433.592C2936.37 439.436 3292.25 395.677 3590.91 344.293C3645.92 334.805 3698.9 325.047 3751.96 315.125C3988 271.003 4221.57 224.254 4497.37 194.018C4837.1 156.756 5269.07 152.589 5562.63 198.592" stroke="url(#paint10_linear_12007_4472)" stroke-opacity="0.3" stroke-miterlimit="10"/>
<path d="M-3811.29 294.827C-3535.68 257.982 -3195.72 258.065 -2891.82 278.58C-2588.62 299.058 -2312.27 338.281 -2051.19 387.03C-1838.8 426.444 -1621.81 475.412 -1396.65 514.821C-1352.98 522.565 -1307.65 529.73 -1262.12 536.406C-1000.86 574.351 -769.001 585.323 -539.504 574.38C-265.869 561.389 -38.9121 504.73 172.406 442.938C195.771 436.159 219.203 429.217 242.569 422.437C429.625 367.877 662.103 313.333 957.285 301.455C1034.53 298.29 1114.12 298.073 1196.04 300.806C1431.4 308.465 1652.75 339.857 1877.1 367.411C2109.6 395.885 2343.26 419.761 2587.1 424.032C2973.85 431.189 3331.49 386.435 3628.45 333.889C3682.82 324.218 3735.86 314.313 3788.96 304.244C4024.65 259.182 4256.34 211.751 4535.53 181.746C4877.89 144.853 5320.05 143.225 5607.15 194.316" stroke="url(#paint11_linear_12007_4472)" stroke-opacity="0.3" stroke-miterlimit="10"/>
<path d="M-3828.15 283.235C-3557.26 245.708 -3223.83 242.472 -2919.93 259.307C-2615.97 275.979 -2332.46 311.365 -2065.94 357.004C-1849.14 394.099 -1629.19 440.824 -1407.96 480.972C-1365.06 488.832 -1321.27 496.24 -1276.59 503.196C-1021.96 543.238 -793.592 560.829 -557.618 554.726C-270.008 547.299 -28.1514 492.328 192.017 431.422C216.072 424.689 240.822 417.991 264.876 411.258C457.315 357.394 690.5 302.807 986.008 289.973C1063.3 286.65 1143 286.109 1225.74 288.548C1462.75 295.456 1685.51 326.711 1910.22 354.912C2143.08 384.03 2376.71 409.535 2622.24 414.721C3012.59 423.224 3371.31 377.436 3666.58 323.726C3721 313.907 3774.16 303.692 3826.62 293.44C4061.2 247.563 4292.54 199.193 4573.68 169.505C4918.66 132.976 5371.66 134.078 5650.98 190.012" stroke="url(#paint12_linear_12007_4472)" stroke-opacity="0.3" stroke-miterlimit="10"/>
<path d="M-3846.04 271.866C-3580.57 233.618 -3253.72 227.232 -2948.29 240.148C-2643.61 253.19 -2353.57 284.556 -2080.29 327.335C-1858.36 362.16 -1636.84 406.586 -1419.6 447.639C-1377.48 455.615 -1334.52 463.303 -1291.44 470.665C-1043.43 512.806 -818.614 537.162 -575.331 535.595C-273.81 533.876 -16.2907 480.454 211.97 420.547C237.41 413.895 262.154 407.207 286.832 400.681C484.657 347.501 719.317 292.735 1013.71 279.036C1091.12 275.393 1170.93 274.529 1254.41 276.838C1493.72 283.196 1717.25 314.121 1943.04 343.007C2176.27 372.774 2409.88 399.905 2656.48 405.808C3049.74 415.618 3409.55 368.792 3703.84 313.946C3757.62 303.943 3810.83 293.579 3862.73 282.981C4096.26 236.12 4327.13 187.131 4610.99 157.627C4959.37 121.328 5421.82 125.08 5694.01 186.051" stroke="url(#paint13_linear_12007_4472)" stroke-opacity="0.3" stroke-miterlimit="10"/>
<path d="M-3863.33 260.392C-3602.57 221.454 -3282.92 211.728 -2976.77 221.024C-2671.31 230.285 -2374.1 257.844 -2095.44 297.705C-1868.32 330.107 -1644.65 372.604 -1431.26 414.241C-1389.91 422.335 -1348.49 430.266 -1306.24 437.909C-1064.84 482.147 -844.267 513.218 -593.739 516.338C-278.999 520.277 -5.8175 468.392 231.299 409.348C257.362 402.902 283.492 396.294 308.927 389.65C512.073 337.308 747.518 282.321 1042.32 267.505C1119.85 263.542 1200.41 262.552 1284.07 264.373C1525.06 269.984 1750 300.783 1976.11 330.482C2209.72 360.898 2443.37 389.494 2691.67 396.31C3087.86 407.424 3449.46 359.593 3742.71 303.77C3796.54 293.617 3849.19 282.906 3901.07 272.321C4134.2 224.671 4364.04 174.697 4649.87 145.501C5000.89 109.553 5474.19 116.02 5739.32 181.86" stroke="url(#paint14_linear_12007_4472)" stroke-opacity="0.3" stroke-miterlimit="10"/>
<path d="M-3881.54 248.971C-3626.25 209.467 -3312.32 196.316 -3006.14 201.967C-2699.96 207.617 -2395.51 231.22 -2110.76 268.21C-1879.21 298.325 -1652.56 338.617 -1443.78 380.968C-1403.2 389.179 -1363.3 397.355 -1322.65 405.404C-1088.62 451.868 -871.585 489.679 -613.741 497.312C-285.848 507.059 3.7582 456.575 249.039 398.348C275.792 391.945 302.612 385.38 328.671 378.941C537.208 327.266 773.378 272.213 1068.53 256.441C1146.12 252.321 1226.86 250.847 1311.27 252.539C1553.94 257.407 1780.24 288.245 2007.49 318.47C2240.79 349.504 2475.12 379.762 2724.43 387.454C3123.57 399.871 3486.27 350.994 3778.55 294.027C3831.81 283.525 3884.45 272.825 3936.46 261.928C4168.57 213.286 4397.94 162.683 4685.8 133.627C5039.49 98.0238 5523.02 107.002 5781.03 177.872" stroke="url(#paint15_linear_12007_4472)" stroke-opacity="0.3" stroke-miterlimit="10"/>
<path d="M-3899.19 237.604C-3648.59 197.403 -3341.9 181.085 -3034.23 183.007C-2727.26 184.894 -2416.32 204.677 -2125.49 238.805C-1888.8 266.679 -1660.62 304.863 -1455.06 348.003C-1415.24 356.333 -1376.18 364.789 -1337.06 373.083C-1109.62 421.647 -896.88 466.313 -631.719 478.453C-290.735 494.158 14.6679 444.868 268.809 387.487C296.947 381.161 324.391 374.8 351.141 368.403C565.071 317.388 802.038 262.1 1096.85 245.338C1174.56 240.898 1255.43 239.102 1339.89 240.631C1584.95 244.792 1811.97 275.476 2039.61 306.356C2273.3 338.044 2507.63 369.93 2758.71 378.369C3161.55 391.962 3525.37 342.036 3815.92 284.046C3869.25 273.393 3921.25 262.506 3973.39 251.295C4205.1 201.856 4433.46 150.26 4723.99 121.537C5080.33 86.2747 5574.73 97.9585 5825.01 173.657" stroke="url(#paint16_linear_12007_4472)" stroke-opacity="0.3" stroke-miterlimit="10"/>
<path d="M-3917.56 226.208C-3672.35 185.274 -3372.14 165.669 -3063.67 163.834C-2755.89 161.963 -2437.77 177.971 -2141.55 209.209C-1899.66 234.683 -1669.32 270.963 -1468.29 314.66C-1429.93 323.073 -1391.64 331.648 -1353.42 340.384C-1132.57 391.046 -924.124 442.557 -651.577 459.033C-298.132 480.489 24.4549 432.46 286.628 376.208C315.457 369.923 343.525 363.765 370.965 357.41C589.595 307.016 828.683 251.725 1123.17 233.973C1200.93 229.376 1281.92 227.258 1367.2 228.498C1613.88 232.081 1842.38 262.485 2071.12 294.057C2305.21 326.399 2539.52 359.91 2792.32 369.259C3198.11 384.152 3563.73 333.211 3852.63 274.036C3905.32 263.195 3957.45 251.995 4008.89 240.759C4239.59 190.324 4466.79 138.058 4760.13 109.343C5119.21 74.257 5623.7 88.7674 5866.94 169.325" stroke="url(#paint17_linear_12007_4472)" stroke-opacity="0.3" stroke-miterlimit="10"/>
<path d="M-3935.93 214.894C-3259.43 98.1186 -2163.72 128.01 -1480.27 281.984C-1222.83 339.948 -999.804 415.952 -670.442 440.635C-264.763 471.056 109.314 410.052 392.638 347.356C675.961 284.659 983.767 212.492 1396.56 217.195C1898.98 222.874 2324.34 340.97 2827.25 360.87C3235.98 377.085 3602.77 325.116 3891.4 265.004C4180.03 204.891 4438.11 132.974 4799.82 98.4069C5161.59 63.6778 5677.01 80.7539 5913.08 166.343" stroke="url(#paint18_linear_12007_4472)" stroke-opacity="0.3" stroke-miterlimit="10"/>
<path d="M-3913.38 249.39C-3248.95 128.887 -2155.83 152.797 -1458.5 302.414C-1196.13 358.772 -966.768 433.234 -636.677 456.109C-310.056 478.805 -8.07924 442.823 240.159 394.514C301.078 382.625 358.032 370.039 412.142 357.471C574.54 319.607 743.267 278.437 936.83 250.916C1071.57 231.926 1219.18 219.536 1384.33 219.595C1546.63 219.672 1702.6 231.634 1857.19 248.639C2170.6 282.702 2477.48 337.713 2814.45 352.527C3173.69 368.318 3499.3 335.198 3771.59 290.433C3808.81 284.423 3844.71 278.18 3879.29 271.705C4100.18 231.232 4306 184.376 4551.47 149.619C4630.5 138.495 4713.3 128.554 4802.37 120.585C5166.82 87.8076 5675.09 101.51 5909.96 178.07" stroke="url(#paint19_linear_12007_4472)" stroke-opacity="0.3" stroke-miterlimit="10"/>
<path d="M-3890.6 283.747C-3238.13 159.563 -2147.54 177.401 -1437.29 322.992C-1170.05 377.758 -933.722 450.727 -602.92 471.814C-276.283 492.688 22.7368 455.255 265.046 405.843C323.944 393.693 380.267 380.916 432.425 367.925C589.593 328.988 751.568 287 939.34 258.043C1069.55 238.007 1212.06 224.208 1373.63 222.6C1531.73 220.814 1685.02 230.654 1839.7 245.678C2153.24 275.939 2466.02 328.588 2803.06 344.884C3160.98 362.086 3485.06 334.347 3759.09 295.632C3795.97 290.433 3832.3 284.875 3867.86 279.443C4091.59 244.085 4302.33 202.454 4552.13 170.907C4632.21 160.667 4716.06 151.61 4805.68 144.004C5172.84 113.198 5674.01 123.4 5908.31 190.988" stroke="url(#paint20_linear_12007_4472)" stroke-opacity="0.3" stroke-miterlimit="10"/>
<path d="M-3868.54 318.027C-3228.02 190.154 -2139.25 201.963 -1416.08 343.543C-1144.64 396.689 -901.35 468.172 -569.834 487.476C-242.55 506.728 52.8238 467.806 289.207 417.289C346.781 404.911 401.152 391.71 452.052 378.33C604.621 338.516 759.981 295.383 940.575 264.917C1065.56 243.798 1204.3 228.823 1360.97 225.317C1515.57 221.705 1666.18 229.426 1820.27 242.436C2133.31 268.705 2451.99 318.999 2789.8 336.812C3147.1 355.46 3469.57 333.257 3745.42 300.422C3782.73 295.906 3819.34 291.355 3855.33 286.606C4082.6 256.391 4297.56 219.94 4551.07 191.399C4632.83 182.239 4717.86 173.742 4807.91 166.82C5177.78 137.981 5671.8 144.847 5904.89 203.281" stroke="url(#paint21_linear_12007_4472)" stroke-opacity="0.3" stroke-miterlimit="10"/>
<path d="M-3848.27 353.582C-3220.31 221.905 -2133.09 227.691 -1395.95 365.22C-1119.62 417.035 -869.925 486.962 -537.606 504.512C-210.213 521.975 82.907 481.724 312.098 429.773C368.428 416.983 421.487 403.53 470.381 389.864C618.385 349.097 766.405 304.865 941.252 272.903C1061.73 250.696 1196.04 234.481 1348.56 229.103C1498.92 223.781 1647.66 229.268 1801.19 240.284C2114.44 262.799 2439.13 310.824 2776.4 330.114C3132.48 350.205 3453.44 333.5 3731.92 306.363C3769.6 302.684 3806.64 298.808 3843 294.897C4073.1 269.898 4293.8 238.474 4551.09 212.89C4633.91 204.596 4720.01 196.965 4810.64 190.392C5183.32 163.467 5670.37 166.841 5902.97 216.413" stroke="url(#paint22_linear_12007_4472)" stroke-opacity="0.3" stroke-miterlimit="10"/>
<path d="M-3828.67 388.95C-3212.52 253.326 -2127.51 253.036 -1376.53 386.832C-1095.24 437.155 -839.26 505.847 -506.134 521.64C-178.63 537.31 111.613 495.525 334.934 442.368C389.953 429.326 441.072 415.423 488.654 401.503C632.16 359.617 773.464 314.478 941.243 280.782C1057.16 257.645 1186.47 239.825 1334.83 232.571C1481.03 225.371 1627.82 228.78 1780.8 237.798C2095.03 256.422 2424.2 302.427 2762.4 323.109C3117.19 344.809 3437.47 333.329 3717.77 312.192C3755.81 309.353 3793.23 306.316 3830.02 303.082C4063.02 283.151 4288.71 256.894 4550.46 234.308C4634.3 227.044 4721.53 220.121 4813.43 213.933C5188.93 188.925 5668.96 188.959 5901.11 229.484" stroke="url(#paint23_linear_12007_4472)" stroke-opacity="0.3" stroke-miterlimit="10"/>
<path d="M-3809.12 424.476C-3204.76 284.888 -2121.97 278.504 -1357.13 408.563C-1071.57 457.353 -808.535 524.684 -473.903 538.751C-145.655 552.821 141.018 509.461 358.469 455.091C411.549 441.599 461.358 427.441 507.694 413.104C646.635 370.257 781.289 324.044 942.693 288.643C1053.41 264.375 1178.99 245.34 1323.18 236.203C1465.85 227.318 1610.14 228.284 1762.5 235.459C2077.02 250.147 2412.13 294.036 2750.56 316.079C3104.84 339.268 3422.92 333.281 3705.87 317.872C3744.28 315.875 3782.13 313.518 3819.22 311.287C4055.13 296.438 4285.81 275.36 4551.28 255.907C4636.82 249.712 4725.26 243.335 4816.91 237.786C5195.23 214.701 5668.3 211.223 5899.19 242.964" stroke="url(#paint24_linear_12007_4472)" stroke-opacity="0.3" stroke-miterlimit="10"/>
<path d="M-3788.84 459.817C-3196.27 316.237 -2115.73 303.903 -1336.87 429.901C-1046.32 477.196 -776.929 543.133 -441.477 555.434C-113.104 567.702 170.631 522.955 381.586 467.165C433.356 453.416 481.92 438.839 526.249 424.21C659.931 380.358 787.936 333.063 942.899 296.109C1049.11 270.739 1170.32 250.287 1309.6 239.386C1448.11 228.612 1590.46 227.487 1742.97 232.688C2057.85 243.266 2398.14 285.165 2737.45 308.774C3090.53 333.423 3407.8 333.016 3692.65 323.478C3731.5 322.162 3769.65 320.811 3807.18 319.262C4046.01 309.509 4281.69 293.625 4551.64 277.184C4638.25 271.862 4727.78 266.358 4820.01 261.16C5201.16 240 5667.28 232.999 5897.67 255.807" stroke="url(#paint25_linear_12007_4472)" stroke-opacity="0.3" stroke-miterlimit="10"/>
<path d="M-3769.23 495.071C-3188.44 347.467 -2110.06 328.997 -1317.28 451.262C-1022.44 497.027 -745.976 561.609 -409.692 572.14C-80.4908 582.638 199.686 536.296 404.709 479.434C455.237 465.264 501.795 450.392 544.879 435.34C674.065 390.346 795.353 342.122 943.942 303.444C1045.58 277.128 1161.74 255.214 1297.55 242.452C1431.91 229.781 1572.38 226.395 1724.28 229.743C2039.46 236.362 2385.79 275.979 2725.3 301.126C3077.87 327.279 3393.03 332.236 3679.72 328.75C3718.94 328.281 3757.47 327.776 3795.43 326.91C4037.19 322.269 4277.87 311.593 4551.63 298.138C4639.26 293.854 4729.93 289.062 4823.37 284.413C5207.37 265.182 5666.49 254.808 5895.76 268.458" stroke="url(#paint26_linear_12007_4472)" stroke-opacity="0.3" stroke-miterlimit="10"/>
<path d="M-3749.02 530.495C-3180.01 378.839 -2103.75 354.21 -1297.66 472.54C-997.815 516.809 -714.266 580.037 -377.142 588.793C-47.7976 597.479 230.148 549.765 428.679 491.462C477.897 477.031 522.45 461.86 564.29 446.383C688.913 400.404 803.55 351.08 945.003 310.795C1041.45 283.328 1153.93 260.017 1285.52 245.514C1416.41 230.974 1554.26 225.445 1705.62 226.771C2021.11 229.418 2372.73 266.875 2713.13 293.604C3064.51 321.232 3378.19 331.772 3667.57 334.068C3707.16 334.448 3746.13 334.63 3784.4 334.776C4029.78 335.299 4274.79 329.814 4552.99 319.552C4642.39 316.182 4733.45 312.231 4827.49 307.935C5213.71 290.439 5666.53 276.714 5895.31 281.373" stroke="url(#paint27_linear_12007_4472)" stroke-opacity="0.3" stroke-miterlimit="10"/>
<path d="M-3729.42 565.732C-3172.88 409.981 -2098.12 379.371 -1278 493.784C-973.153 536.549 -683.212 598.38 -345.246 605.352C-15.1286 612.419 259.263 563.097 451.994 503.385C499.969 488.53 543.211 473.097 583.044 457.32C703.101 410.354 810.389 359.893 946.159 317.906C1038.03 289.485 1146.15 264.737 1272.88 248.286C1399.55 231.999 1534.9 223.995 1686.41 223.327C2002.22 221.986 2359.82 257.311 2699.72 285.554C3049.93 314.662 3362.82 330.839 3654.12 339.066C3694.09 340.299 3733.43 341.333 3772.14 342.168C4020.46 347.839 4271.19 347.634 4553.21 340.379C4643.63 338.053 4736.6 334.692 4831.16 330.913C5220.25 315.359 5666.07 298.237 5893.66 293.835" stroke="url(#paint28_linear_12007_4472)" stroke-opacity="0.3" stroke-miterlimit="10"/>
<path d="M-3709.9 601.183C-3164.45 441.407 -2091.81 404.598 -1258.36 515.035C-949.203 556.253 -652.237 616.876 -313.429 622.059C16.832 627.301 288.362 576.405 474.46 515.575C520.429 500.423 562.427 484.564 601.013 468.361C716.569 420.243 817.131 368.845 946.452 325.28C1033.82 295.74 1136.87 269.517 1260.07 251.35C1382.58 233.146 1515.98 223.021 1666.95 220.317C1983.14 214.812 2346.03 247.958 2686.84 277.79C3036.55 308.417 3347.34 330.016 3641.2 344.393C3680.91 346.282 3721.32 348.207 3760.4 349.896C4011.67 360.733 4267.42 365.791 4553.26 361.553C4644.77 360.112 4738.82 357.635 4833.91 354.375C5225.86 340.77 5664.74 320.076 5891.84 306.62" stroke="url(#paint29_linear_12007_4472)" stroke-opacity="0.3" stroke-miterlimit="10"/>
<path d="M-3689.59 636.493C-3156.62 472.611 -2085.41 429.62 -1237.99 536.263C-923.814 575.963 -620.446 635.173 -280.794 638.561C50.309 642.007 318.215 589.66 498.507 527.42C543.232 511.842 583.22 495.684 620.492 479.218C730.783 430.075 825.378 377.61 947.619 332.264C1030.47 301.602 1129.16 273.935 1247.5 253.81C1366.53 233.721 1497.37 221.268 1647.73 216.685C1964.3 207.001 2333.12 238.16 2674.13 269.55C3022.66 301.664 3332.67 328.938 3628.52 349.122C3668.61 351.869 3709.39 354.652 3749.61 357.071C4003.82 373.091 4264.62 383.43 4554.98 382.256C4648.19 381.903 4742.71 380.111 4839.08 377.245C5233.9 365.596 5665.77 341.484 5892.45 318.779" stroke="url(#paint30_linear_12007_4472)" stroke-opacity="0.3" stroke-miterlimit="10"/>
<path d="M-3669.97 671.822C-3148.87 504.038 -2079.79 454.813 -1218.32 557.477C-899.136 595.649 -589.365 653.435 -248.174 655.058C83.005 656.831 348.046 602.906 522.46 539.421C565.872 523.582 604.613 506.998 639.875 490.233C745.592 440.102 833.52 386.536 949.37 339.444C1027.64 307.824 1121.25 278.675 1236.12 256.66C1350.99 234.645 1479.89 220.059 1629.71 213.426C1946.59 199.716 2320.7 228.677 2662.68 261.499C3010.79 294.974 3318.62 327.867 3617.03 354.24C3657.5 357.848 3698.02 361.291 3739.25 364.77C3996.41 385.987 4262.24 401.624 4556.35 403.652C4650.66 404.19 4746.33 403.123 4843.23 400.781C5240.91 391.096 5665.84 363.392 5891.32 331.538" stroke="url(#paint31_linear_12007_4472)" stroke-opacity="0.3" stroke-miterlimit="10"/>
<path d="M-3649.78 707.384C-3141.1 535.327 -2074.23 480.015 -1198.7 578.682C-875.191 615.285 -558.315 671.677 -216.28 671.493C115.74 671.459 377.849 616.119 545.752 551.186C587.918 534.921 624.649 518.038 658.662 500.846C759.869 449.563 841.06 395.058 949.753 346.345C1022.81 313.564 1112.05 282.966 1223.37 259.221C1334.07 235.275 1461.1 218.384 1610.31 209.861C1927.56 191.947 2307.74 218.575 2649.79 253.289C2996.78 288.092 3303.77 326.857 3603.42 359.201C3644.26 363.671 3685.16 367.977 3726.83 372.155C3986.93 398.586 4257.81 419.536 4556.45 424.647C4651.78 426.244 4749.3 425.941 4846.73 424.123C5247.28 416.409 5665.19 385.268 5890.18 344.273" stroke="url(#paint32_linear_12007_4472)" stroke-opacity="0.3" stroke-miterlimit="10"/>
<path d="M-3630.17 742.756C-3132.61 566.655 -2067.86 505.075 -1179.02 599.859C-850.489 634.923 -527.198 689.878 -184.316 687.882C147.851 686 407.093 629.075 568.416 562.858C608.573 546.294 644.055 528.984 676.751 511.528C773.381 459.254 847.896 403.645 950.192 353.178C1018.67 319.436 1103.59 287.22 1209.98 261.667C1316.51 235.785 1441.65 216.584 1590.25 206.164C1907.89 184.035 2294.01 208.651 2636.26 244.933C2982.77 281.268 3287.59 325.685 3589.93 363.924C3631.21 369.096 3672.49 374.267 3714.54 379.31C3977.53 411.134 4253.52 437.249 4556.7 445.453C4653.81 447.983 4751.73 448.538 4849.75 447.082C5253.18 441.345 5664.13 406.593 5887.92 356.395" stroke="url(#paint33_linear_12007_4472)" stroke-opacity="0.3" stroke-miterlimit="10"/>
<path d="M-3610.63 778.342C-3124.9 598.168 -2062.29 530.308 -1158.75 621.26C-825.267 654.942 -494.866 708.487 -151.141 704.673C181.799 701.138 437.474 642.596 592.907 575.133C631.815 558.144 665.981 540.572 696.73 522.653C788.777 469.391 856.613 412.681 951.742 360.589C1015.69 325.721 1096.16 292.217 1198.38 264.725C1300.66 237.068 1423.23 215.516 1571.99 203.067C1890 176.712 2281.35 199.271 2624.58 236.994C2969.9 274.825 3274 324.814 3578.22 369.256C3619.87 375.295 3661.53 381.333 3703.94 387.243C3970.59 424.345 4251.63 455.801 4557.88 467.199C4656.01 470.793 4755.08 472.08 4853.63 471.153C5259.93 467.398 5663.86 429.193 5887.22 369.642" stroke="url(#paint34_linear_12007_4472)" stroke-opacity="0.3" stroke-miterlimit="10"/>
<path d="M-3590.32 813.785C-3117.11 629.49 -2055.99 555.533 -1139.07 642.405C-801.251 674.499 -463.73 726.631 -119.157 720.994C213.931 715.601 466.669 655.637 616.277 586.76C653.871 569.509 686.022 551.637 715.52 533.29C802.286 479.001 864.136 421.223 952.858 367.372C1012.22 331.54 1087.67 296.377 1185.64 267.106C1284.45 237.541 1404.44 213.63 1553.28 199.31C1870.98 168.682 2268.97 189.251 2611.71 228.511C2956.54 267.879 3258.47 323.549 3565.4 373.918C3607.43 380.826 3649.52 387.569 3692.32 394.349C3961.93 436.707 4248.02 473.521 4558.81 488.029C4657.97 492.691 4758.26 494.547 4858.04 494.185C5267.22 492.42 5664.18 450.587 5887.04 381.82" stroke="url(#paint35_linear_12007_4472)" stroke-opacity="0.3" stroke-miterlimit="10"/>
<path d="M-3570.74 848.839C-3109.33 660.449 -2050.11 580.105 -1118.81 662.824C-775.889 693.387 -431.863 744.107 -86.3658 736.634C247.64 729.407 496.862 667.762 640.537 597.737C784.213 527.713 844.398 447.588 954.213 373.263C1064.03 298.938 1239.23 226.674 1534.92 194.478C1853 159.734 2256.47 177.918 2600.12 218.991C2943.85 259.899 3244.37 321.353 3554.01 377.878C3862.95 434.367 4195.8 488.05 4560.71 508.276C5075.27 536.987 5611.7 490.5 5886.67 393.379" stroke="url(#paint36_linear_12007_4472)" stroke-opacity="0.3" stroke-miterlimit="10"/>
<defs>
<linearGradient id="paint0_linear_12007_4472" x1="-3043.62" y1="461.999" x2="-1948.63" y2="-2145.32" gradientUnits="userSpaceOnUse">
<stop stop-color="#29BCFA"/>
<stop offset="0.43" stop-color="#6464E4"/>
<stop offset="1" stop-color="#B45AFA"/>
</linearGradient>
<linearGradient id="paint1_linear_12007_4472" x1="-3051.08" y1="438.024" x2="-2017.03" y2="-2111.22" gradientUnits="userSpaceOnUse">
<stop stop-color="#29BCFA"/>
<stop offset="0.43" stop-color="#6464E4"/>
<stop offset="1" stop-color="#B45AFA"/>
</linearGradient>
<linearGradient id="paint2_linear_12007_4472" x1="-3057.86" y1="414.368" x2="-2082.8" y2="-2075.6" gradientUnits="userSpaceOnUse">
<stop stop-color="#29BCFA"/>
<stop offset="0.43" stop-color="#6464E4"/>
<stop offset="1" stop-color="#B45AFA"/>
</linearGradient>
<linearGradient id="paint3_linear_12007_4472" x1="-3065.31" y1="390.709" x2="-2147.3" y2="-2038.52" gradientUnits="userSpaceOnUse">
<stop stop-color="#29BCFA"/>
<stop offset="0.43" stop-color="#6464E4"/>
<stop offset="1" stop-color="#B45AFA"/>
</linearGradient>
<linearGradient id="paint4_linear_12007_4472" x1="-3072.34" y1="367.404" x2="-2208.97" y2="-2000.15" gradientUnits="userSpaceOnUse">
<stop stop-color="#29BCFA"/>
<stop offset="0.43" stop-color="#6464E4"/>
<stop offset="1" stop-color="#B45AFA"/>
</linearGradient>
<linearGradient id="paint5_linear_12007_4472" x1="-3079.35" y1="344.31" x2="-2267.66" y2="-1962.05" gradientUnits="userSpaceOnUse">
<stop stop-color="#29BCFA"/>
<stop offset="0.43" stop-color="#6464E4"/>
<stop offset="1" stop-color="#B45AFA"/>
</linearGradient>
<linearGradient id="paint6_linear_12007_4472" x1="-3086.91" y1="320.438" x2="-2321.88" y2="-1927.92" gradientUnits="userSpaceOnUse">
<stop stop-color="#29BCFA"/>
<stop offset="0.43" stop-color="#6464E4"/>
<stop offset="1" stop-color="#B45AFA"/>
</linearGradient>
<linearGradient id="paint7_linear_12007_4472" x1="-3093.81" y1="297.126" x2="-2373.41" y2="-1893.36" gradientUnits="userSpaceOnUse">
<stop stop-color="#29BCFA"/>
<stop offset="0.43" stop-color="#6464E4"/>
<stop offset="1" stop-color="#B45AFA"/>
</linearGradient>
<linearGradient id="paint8_linear_12007_4472" x1="-3101.93" y1="274.188" x2="-2421.63" y2="-1861.74" gradientUnits="userSpaceOnUse">
<stop stop-color="#29BCFA"/>
<stop offset="0.43" stop-color="#6464E4"/>
<stop offset="1" stop-color="#B45AFA"/>
</linearGradient>
<linearGradient id="paint9_linear_12007_4472" x1="-3109.12" y1="251.051" x2="-2464.63" y2="-1834.77" gradientUnits="userSpaceOnUse">
<stop stop-color="#29BCFA"/>
<stop offset="0.43" stop-color="#6464E4"/>
<stop offset="1" stop-color="#B45AFA"/>
</linearGradient>
<linearGradient id="paint10_linear_12007_4472" x1="-3117.59" y1="228.854" x2="-2506.4" y2="-1808.48" gradientUnits="userSpaceOnUse">
<stop stop-color="#29BCFA"/>
<stop offset="0.43" stop-color="#6464E4"/>
<stop offset="1" stop-color="#B45AFA"/>
</linearGradient>
<linearGradient id="paint11_linear_12007_4472" x1="-3125.6" y1="207.164" x2="-2543.25" y2="-1787.24" gradientUnits="userSpaceOnUse">
<stop stop-color="#29BCFA"/>
<stop offset="0.43" stop-color="#6464E4"/>
<stop offset="1" stop-color="#B45AFA"/>
</linearGradient>
<linearGradient id="paint12_linear_12007_4472" x1="-3134.25" y1="186.463" x2="-2577.02" y2="-1769.75" gradientUnits="userSpaceOnUse">
<stop stop-color="#29BCFA"/>
<stop offset="0.43" stop-color="#6464E4"/>
<stop offset="1" stop-color="#B45AFA"/>
</linearGradient>
<linearGradient id="paint13_linear_12007_4472" x1="-3144.46" y1="167.294" x2="-2608.05" y2="-1757.11" gradientUnits="userSpaceOnUse">
<stop stop-color="#29BCFA"/>
<stop offset="0.43" stop-color="#6464E4"/>
<stop offset="1" stop-color="#B45AFA"/>
</linearGradient>
<linearGradient id="paint14_linear_12007_4472" x1="-3154.32" y1="148.936" x2="-2635.53" y2="-1748.69" gradientUnits="userSpaceOnUse">
<stop stop-color="#29BCFA"/>
<stop offset="0.43" stop-color="#6464E4"/>
<stop offset="1" stop-color="#B45AFA"/>
</linearGradient>
<linearGradient id="paint15_linear_12007_4472" x1="-3165.72" y1="131.684" x2="-2661.7" y2="-1743.49" gradientUnits="userSpaceOnUse">
<stop stop-color="#29BCFA"/>
<stop offset="0.43" stop-color="#6464E4"/>
<stop offset="1" stop-color="#B45AFA"/>
</linearGradient>
<linearGradient id="paint16_linear_12007_4472" x1="-3176.65" y1="115.011" x2="-2685.02" y2="-1741.85" gradientUnits="userSpaceOnUse">
<stop stop-color="#29BCFA"/>
<stop offset="0.43" stop-color="#6464E4"/>
<stop offset="1" stop-color="#B45AFA"/>
</linearGradient>
<linearGradient id="paint17_linear_12007_4472" x1="-3188.45" y1="98.4131" x2="-2708.17" y2="-1741.53" gradientUnits="userSpaceOnUse">
<stop stop-color="#29BCFA"/>
<stop offset="0.43" stop-color="#6464E4"/>
<stop offset="1" stop-color="#B45AFA"/>
</linearGradient>
<linearGradient id="paint18_linear_12007_4472" x1="-3200.21" y1="82.8696" x2="-2729.71" y2="-1742.97" gradientUnits="userSpaceOnUse">
<stop stop-color="#29BCFA"/>
<stop offset="0.43" stop-color="#6464E4"/>
<stop offset="1" stop-color="#B45AFA"/>
</linearGradient>
<linearGradient id="paint19_linear_12007_4472" x1="-3173.26" y1="100.617" x2="-2711.93" y2="-1703.62" gradientUnits="userSpaceOnUse">
<stop stop-color="#29BCFA"/>
<stop offset="0.43" stop-color="#6464E4"/>
<stop offset="1" stop-color="#B45AFA"/>
</linearGradient>
<linearGradient id="paint20_linear_12007_4472" x1="-3145.97" y1="118.583" x2="-2693.76" y2="-1663.87" gradientUnits="userSpaceOnUse">
<stop stop-color="#29BCFA"/>
<stop offset="0.43" stop-color="#6464E4"/>
<stop offset="1" stop-color="#B45AFA"/>
</linearGradient>
<linearGradient id="paint21_linear_12007_4472" x1="-3119.39" y1="136.242" x2="-2674.89" y2="-1627.12" gradientUnits="userSpaceOnUse">
<stop stop-color="#29BCFA"/>
<stop offset="0.43" stop-color="#6464E4"/>
<stop offset="1" stop-color="#B45AFA"/>
</linearGradient>
<linearGradient id="paint22_linear_12007_4472" x1="-3099.29" y1="166.699" x2="-2635.88" y2="-1633.14" gradientUnits="userSpaceOnUse">
<stop stop-color="#29BCFA"/>
<stop offset="0.43" stop-color="#6464E4"/>
<stop offset="1" stop-color="#B45AFA"/>
</linearGradient>
<linearGradient id="paint23_linear_12007_4472" x1="-3079.85" y1="197.031" x2="-2595.73" y2="-1641.84" gradientUnits="userSpaceOnUse">
<stop stop-color="#29BCFA"/>
<stop offset="0.43" stop-color="#6464E4"/>
<stop offset="1" stop-color="#B45AFA"/>
</linearGradient>
<linearGradient id="paint24_linear_12007_4472" x1="-3060.31" y1="227.189" x2="-2553.64" y2="-1653.15" gradientUnits="userSpaceOnUse">
<stop stop-color="#29BCFA"/>
<stop offset="0.43" stop-color="#6464E4"/>
<stop offset="1" stop-color="#B45AFA"/>
</linearGradient>
<linearGradient id="paint25_linear_12007_4472" x1="-3039.83" y1="256.532" x2="-2507.39" y2="-1669.97" gradientUnits="userSpaceOnUse">
<stop stop-color="#29BCFA"/>
<stop offset="0.43" stop-color="#6464E4"/>
<stop offset="1" stop-color="#B45AFA"/>
</linearGradient>
<linearGradient id="paint26_linear_12007_4472" x1="-3019.7" y1="285.005" x2="-2457.44" y2="-1693.46" gradientUnits="userSpaceOnUse">
<stop stop-color="#29BCFA"/>
<stop offset="0.43" stop-color="#6464E4"/>
<stop offset="1" stop-color="#B45AFA"/>
</linearGradient>
<linearGradient id="paint27_linear_12007_4472" x1="-2998.64" y1="312.962" x2="-2402.7" y2="-1722.39" gradientUnits="userSpaceOnUse">
<stop stop-color="#29BCFA"/>
<stop offset="0.43" stop-color="#6464E4"/>
<stop offset="1" stop-color="#B45AFA"/>
</linearGradient>
<linearGradient id="paint28_linear_12007_4472" x1="-2978.2" y1="340.634" x2="-2347.06" y2="-1751.84" gradientUnits="userSpaceOnUse">
<stop stop-color="#29BCFA"/>
<stop offset="0.43" stop-color="#6464E4"/>
<stop offset="1" stop-color="#B45AFA"/>
</linearGradient>
<linearGradient id="paint29_linear_12007_4472" x1="-2957.86" y1="368.566" x2="-2290.68" y2="-1780.12" gradientUnits="userSpaceOnUse">
<stop stop-color="#29BCFA"/>
<stop offset="0.43" stop-color="#6464E4"/>
<stop offset="1" stop-color="#B45AFA"/>
</linearGradient>
<linearGradient id="paint30_linear_12007_4472" x1="-2936.56" y1="396.176" x2="-2231.48" y2="-1809.57" gradientUnits="userSpaceOnUse">
<stop stop-color="#29BCFA"/>
<stop offset="0.43" stop-color="#6464E4"/>
<stop offset="1" stop-color="#B45AFA"/>
</linearGradient>
<linearGradient id="paint31_linear_12007_4472" x1="-2916.1" y1="424.026" x2="-2173.1" y2="-1836.47" gradientUnits="userSpaceOnUse">
<stop stop-color="#29BCFA"/>
<stop offset="0.43" stop-color="#6464E4"/>
<stop offset="1" stop-color="#B45AFA"/>
</linearGradient>
<linearGradient id="paint32_linear_12007_4472" x1="-2895.09" y1="452.036" x2="-2112.73" y2="-1863.09" gradientUnits="userSpaceOnUse">
<stop stop-color="#29BCFA"/>
<stop offset="0.43" stop-color="#6464E4"/>
<stop offset="1" stop-color="#B45AFA"/>
</linearGradient>
<linearGradient id="paint33_linear_12007_4472" x1="-2874.65" y1="479.724" x2="-2051.17" y2="-1890.27" gradientUnits="userSpaceOnUse">
<stop stop-color="#29BCFA"/>
<stop offset="0.43" stop-color="#6464E4"/>
<stop offset="1" stop-color="#B45AFA"/>
</linearGradient>
<linearGradient id="paint34_linear_12007_4472" x1="-2854.27" y1="507.923" x2="-1990.29" y2="-1914.18" gradientUnits="userSpaceOnUse">
<stop stop-color="#29BCFA"/>
<stop offset="0.43" stop-color="#6464E4"/>
<stop offset="1" stop-color="#B45AFA"/>
</linearGradient>
<linearGradient id="paint35_linear_12007_4472" x1="-2833.04" y1="535.672" x2="-1925.86" y2="-1939.99" gradientUnits="userSpaceOnUse">
<stop stop-color="#29BCFA"/>
<stop offset="0.43" stop-color="#6464E4"/>
<stop offset="1" stop-color="#B45AFA"/>
</linearGradient>
<linearGradient id="paint36_linear_12007_4472" x1="-2810.25" y1="557.243" x2="-1826.48" y2="-2011.66" gradientUnits="userSpaceOnUse">
<stop stop-color="#29BCFA"/>
<stop offset="0.43" stop-color="#6464E4"/>
<stop offset="1" stop-color="#B45AFA"/>
</linearGradient>
</defs>
</svg>
