<svg width="1920" height="1374" viewBox="0 0 1920 1374" fill="none" xmlns="http://www.w3.org/2000/svg">
<path d="M2000.98 327.599C1922.46 303.222 1829.62 347.449 1765.92 414.518C1702.22 481.587 1661.65 568.296 1622.37 652.717C1584.22 734.898 1534.49 827.48 1452.79 849.513C1376.46 869.925 1306.14 815.598 1269.22 748.269C1232.29 680.941 1217.72 600.134 1185.3 529.894C1152.85 459.488 1093.19 396.247 1016.23 400.607C947.493 404.56 886.89 460.153 821.687 491.729C676.083 562.4 517.179 509.369 385.899 439.545C254.618 369.721 124.382 281.955 -28.9113 284.435" stroke="url(#paint0_linear_11621_25778)" stroke-opacity="0.3" stroke-miterlimit="10"/>
<path d="M2004.03 315.898C1926.58 290.744 1835.19 331.376 1771.08 394.675C1706.96 457.975 1664.6 540.602 1623.72 622.095C1590.74 688.095 1550.22 761.714 1491.53 798.366C1479.79 805.697 1467.31 811.526 1454.02 815.525C1379.4 837.997 1311.12 789.895 1272.31 728.26C1233.26 666.18 1214.5 588.159 1180.25 518.94C1176.5 511.27 1172.28 503.742 1167.9 496.262C1132.74 436.635 1077.78 386.766 1009.23 389.639C991.428 390.342 974.034 394.545 956.989 400.885C908.07 419.239 861.959 455.725 813.64 479.764C762.109 505.461 709.023 516.616 655.87 516.233C573.489 515.681 491.668 487.183 417.442 450.361C403.728 443.622 390.303 436.623 377.167 429.365C318.652 397.3 260.389 361.709 199.486 333.296C124.025 298.053 44.0435 274.695 -38.6818 281.147" stroke="url(#paint1_linear_11621_25778)" stroke-opacity="0.3" stroke-miterlimit="10"/>
<path d="M2006.93 304.223C1930.73 278.414 1840.45 315.392 1775.9 374.766C1711.35 434.141 1667.07 512.907 1624.73 591.431C1590.41 655.143 1549.21 726.436 1491.68 763.895C1480.13 771.33 1467.87 777.432 1454.99 781.823C1382.07 806.346 1315.66 764.498 1274.94 708.379C1233.8 651.698 1210.97 576.248 1174.74 508.1C1170.68 500.538 1166.46 493.024 1161.96 485.77C1125.61 426.959 1070.33 377.114 1001.81 378.957C983.987 379.497 966.546 383.367 949.297 389.417C899.949 407.02 853.513 443.379 805.007 468.134C753.447 494.495 700.497 507.326 647.029 507.914C563.926 508.806 481.799 479.266 407.737 441.273C394.16 434.336 380.688 427.023 367.69 419.567C309.359 386.485 251.149 350.095 189.829 322.045C113.801 287.226 31.6791 266.813 -49.0403 278.182" stroke="url(#paint2_linear_11621_25778)" stroke-opacity="0.3" stroke-miterlimit="10"/>
<path d="M2009.98 292.486C1934.84 265.909 1846.03 299.477 1781.05 354.937C1716.07 410.398 1669.99 485.1 1625.92 560.919C1590.24 622.184 1548.57 691.436 1491.83 729.464C1480.47 737.004 1468.58 743.328 1455.92 747.993C1384.69 774.558 1320.32 738.898 1277.72 688.443C1234.46 636.983 1207.43 564.312 1169.39 497.188C1165.17 489.688 1160.67 482.447 1155.98 475.09C1118.44 417.097 1062.97 367.069 994.511 368.051C976.643 368.264 959.156 371.802 941.73 377.727C891.794 394.627 845.192 430.81 796.656 456.229C745.226 483.205 692.251 497.753 638.599 499.096C554.934 501.381 472.5 470.806 398.629 431.812C385.032 424.725 371.698 417.216 358.68 409.611C300.401 375.73 242.401 338.498 180.48 310.696C103.884 276.304 19.4661 258.874 -59.2503 275.143" stroke="url(#paint3_linear_11621_25778)" stroke-opacity="0.3" stroke-miterlimit="10"/>
<path d="M2012.92 280.952C1938.99 253.564 1851.48 283.618 1786.08 335.339C1720.69 387.061 1672.67 457.76 1627.15 530.622C1590.13 589.61 1547.81 656.709 1492.17 695.207C1481 702.85 1469.33 709.444 1457.04 714.334C1387.65 742.722 1324.99 713.323 1280.69 668.631C1235.15 622.424 1204.25 552.431 1164.26 486.543C1159.91 479.269 1155.22 471.926 1150.41 464.793C1111.68 407.619 1056.06 357.575 987.438 357.419C969.525 357.307 951.992 360.513 934.389 366.314C884.024 382.467 837.097 418.52 788.399 444.81C736.939 472.445 684.099 488.655 630.104 490.799C545.875 494.472 462.949 462.751 389.427 422.716C375.941 415.269 362.586 407.612 349.548 399.86C291.452 364.972 233.663 326.905 171.167 299.516C94.0029 265.55 7.42018 250.884 -69.2697 272.196" stroke="url(#paint4_linear_11621_25778)" stroke-opacity="0.3" stroke-miterlimit="10"/>
<path d="M2015.83 269.229C1942.99 241.245 1856.74 267.632 1790.94 315.627C1725.11 363.459 1675.32 430.282 1628.05 500.291C1589.85 556.962 1546.85 621.75 1492.05 661.135C1481.23 668.835 1469.74 675.533 1457.73 681.021C1390 711.271 1329.05 688.111 1283.21 649.115C1235.24 608.192 1200.47 540.871 1158.66 476.008C1154 468.842 1149.18 461.724 1144.21 454.653C1104.29 398.297 1048.36 348.286 979.925 347.066C961.993 346.794 944.256 349.717 926.579 355.019C875.812 370.591 828.691 406.303 779.804 433.298C728.314 461.587 675.606 479.453 621.296 482.558C536.344 487.662 453.111 454.917 379.91 413.683C366.404 406.089 353.186 398.238 340.1 390.175C282.057 354.498 224.476 315.6 161.379 288.46C83.62 254.758 -5.2307 243.221 -79.7666 269.347" stroke="url(#paint5_linear_11621_25778)" stroke-opacity="0.3" stroke-miterlimit="10"/>
<path d="M2018.89 257.374C1947.26 228.583 1862.32 251.644 1796.06 295.604C1729.82 339.726 1678.09 402.577 1629.38 469.652C1589.81 523.902 1546.18 586.717 1492.48 626.568C1481.85 634.371 1470.74 641.29 1458.94 647.048C1392.9 679.316 1333.47 662.255 1286.22 628.722C1235.81 593.061 1197.34 528.353 1153.55 464.554C1148.73 457.45 1143.76 450.392 1138.66 443.545C1097.56 388.002 1041.44 337.811 972.871 335.625C954.893 335.03 937.109 337.624 919.254 342.803C867.898 357.68 820.609 393.218 771.532 420.916C720.01 449.859 667.406 469.213 612.936 473.228C527.417 479.711 443.875 445.944 370.676 403.607C357.307 395.819 344.069 387.821 331.119 379.565C273.257 342.889 215.727 303.207 152.183 276.267C73.8544 242.989 -17.1617 234.196 -89.6794 265.329" stroke="url(#paint6_linear_11621_25778)" stroke-opacity="0.3" stroke-miterlimit="10"/>
<path d="M2021.81 245.549C1951.24 216.005 1867.74 235.541 1801.06 275.803C1734.39 316.064 1680.9 375.07 1630.59 439.267C1589.68 491.265 1545.56 551.9 1492.65 592.308C1482.2 600.212 1471.3 607.398 1459.88 613.378C1395.53 647.655 1337.64 636.834 1288.98 608.746C1235.98 578.378 1193.8 516.278 1148.22 453.66C1143.12 446.827 1138 439.831 1132.74 433.044C1090.45 378.314 1034.17 328.11 965.47 324.962C947.472 324.208 929.642 326.475 911.582 331.369C859.796 345.506 812.181 380.916 762.913 409.313C711.359 438.906 658.884 459.904 604.097 464.873C518.01 472.73 434.002 437.994 361.148 394.631C347.758 386.696 334.63 378.342 321.66 369.941C263.847 332.482 206.524 291.976 142.378 265.284C63.3211 232.479 -29.8328 226.584 -100.362 262.54" stroke="url(#paint7_linear_11621_25778)" stroke-opacity="0.3" stroke-miterlimit="10"/>
<path d="M2024.91 233.683C1955.41 203.548 1873.17 219.457 1806.09 256.037C1739 292.618 1683.57 347.681 1631.66 409.015C1589.54 458.563 1544.64 517.289 1492.69 558.369C1482.46 566.537 1471.91 573.78 1460.88 580.142C1398.22 616.423 1341.87 611.817 1291.8 589.153C1236.21 564.056 1190.45 504.343 1143.08 442.897C1137.83 436.124 1132.57 429.35 1127.16 422.624C1083.71 368.863 1027.22 318.318 958.567 314.326C940.522 313.251 922.644 315.192 904.407 319.965C852.189 333.366 804.273 368.812 754.944 397.698C703.356 427.941 651.009 450.577 596.034 456.289C509.377 465.514 425.057 429.764 352.361 385.259C339.108 377.131 325.959 368.632 312.967 360.085C255.333 321.634 198.058 280.35 133.492 254.02C53.8629 221.635 -41.4573 218.465 -109.949 259.553" stroke="url(#paint8_linear_11621_25778)" stroke-opacity="0.3" stroke-miterlimit="10"/>
<path d="M2027.86 221.782C1959.57 190.845 1878.63 203.466 1811.11 236.218C1743.58 268.97 1686.4 320.224 1632.88 378.709C1589.43 426.029 1544.01 482.437 1493.03 524.188C1482.98 532.459 1472.64 539.966 1461.99 546.549C1401 584.828 1345.88 586.508 1294.71 569.154C1236.37 549.356 1187.06 492.179 1137.88 431.735C1132.47 425.022 1126.9 418.355 1121.33 411.689C1076.85 358.68 1019.89 308.211 951.228 303.054C933.135 301.659 915.052 303.322 896.767 307.765C844.144 320.596 795.873 355.756 746.377 385.502C694.911 416.347 642.533 440.665 587.21 447.163C499.825 457.8 415.191 421.036 342.809 375.343C329.534 367.069 316.493 358.216 303.48 349.524C245.866 310.128 188.822 268.182 123.649 242.094C43.4196 209.965 -54.1722 209.882 -120.526 255.714" stroke="url(#paint9_linear_11621_25778)" stroke-opacity="0.3" stroke-miterlimit="10"/>
<path d="M2031.01 209.878C1963.77 178.189 1884.26 187.324 1816.3 216.261C1748.34 245.199 1689.24 292.705 1634.12 348.353C1589.34 393.452 1543.26 447.76 1493.24 490.18C1483.38 498.553 1473.39 506.117 1463 513.289C1403.69 553.559 1349.94 561.456 1297.5 549.278C1236.46 535.084 1183.71 480.065 1132.58 420.829C1126.86 414.222 1121.32 407.729 1115.44 401.169C1069.77 348.958 1012.64 298.469 944.001 292.313C926.046 290.714 907.757 292.1 889.267 296.261C836.054 308.409 787.611 343.4 738.078 373.795C686.576 405.287 634.323 431.234 578.679 438.677C490.72 450.674 405.745 412.739 333.414 366.279C320.091 357.698 307.213 348.814 294.309 339.769C236.897 299.547 179.873 256.664 114.277 230.932C33.4726 199.219 -66.2605 202.003 -130.638 252.61" stroke="url(#paint10_linear_11621_25778)" stroke-opacity="0.3" stroke-miterlimit="10"/>
<path d="M2034.03 198.002C1968.01 165.675 1889.75 171.22 1821.22 196.568C1752.85 221.868 1691.96 265.436 1635.25 318.262C1589.1 360.992 1542.56 413.328 1493.47 456.258C1483.95 464.686 1474.02 472.562 1464 479.953C1406.5 522.003 1353.89 536.674 1300.29 529.445C1236.4 520.882 1180.2 468.007 1127.25 409.76C1121.4 403.373 1115.52 396.824 1109.67 390.436C1062.81 339.014 1005.5 288.338 936.716 281.231C918.713 279.314 900.376 280.377 881.706 284.419C828.059 295.841 779.287 330.714 729.557 361.806C678.018 393.946 625.888 421.518 570.051 429.697C481.517 443.05 396.068 404.15 324.047 356.503C310.858 347.729 297.958 338.7 285.032 329.509C227.637 288.344 170.998 244.75 104.636 219.303C23.2542 188.001 -78.6495 193.481 -141.184 249.06" stroke="url(#paint11_linear_11621_25778)" stroke-opacity="0.3" stroke-miterlimit="10"/>
<path d="M2037.1 186.168C1972.13 153.085 1895.14 155.213 1826.35 176.89C1757.54 198.406 1694.74 238.26 1636.56 288.071C1589.23 328.559 1541.85 378.706 1493.72 422.31C1484.39 430.84 1474.82 438.934 1465.02 446.591C1409.19 490.627 1357.84 511.845 1303.09 509.547C1236.37 506.759 1176.86 455.808 1121.94 398.587C1115.93 392.256 1109.77 385.973 1103.76 379.643C1055.71 329.001 998.227 278.293 929.305 270.238C911.279 268.165 892.894 268.906 874.018 272.668C819.936 283.367 770.832 318.126 721.063 349.869C669.484 382.658 617.476 411.854 561.314 420.973C472.044 435.727 386.276 395.814 314.562 346.977C301.351 338.057 288.402 328.72 275.61 319.337C218.415 277.34 161.791 232.804 95.0019 207.705C13.0406 176.807 -91.1666 185.185 -151.574 245.471" stroke="url(#paint12_linear_11621_25778)" stroke-opacity="0.3" stroke-miterlimit="10"/>
<path d="M2040.43 174.539C1976.65 140.649 1900.96 139.53 1831.55 157.322C1762.32 175.228 1697.73 211.178 1637.8 258.244C1589.13 296.55 1541.23 344.427 1494.07 388.871C1484.93 397.505 1475.58 405.864 1466.17 413.901C1412.01 459.924 1361.96 487.833 1305.84 490.178C1236.31 493.308 1173.3 444.153 1116.59 388.059C1110.27 381.832 1104.1 375.557 1097.97 369.444C1048.73 319.572 990.892 268.709 922.167 259.773C904.092 257.383 885.658 257.802 866.602 261.448C811.952 271.635 762.646 306.077 712.678 338.52C661.059 371.962 609.17 402.781 552.812 412.631C462.961 428.736 376.87 387.805 305.304 337.82C292.228 328.705 279.255 319.222 266.571 309.483C209.546 266.488 152.988 221.327 85.5859 196.456C2.8578 165.842 -103.341 177.015 -161.756 242.211" stroke="url(#paint13_linear_11621_25778)" stroke-opacity="0.3" stroke-miterlimit="10"/>
<path d="M2043.61 162.815C1980.87 128.161 1906.6 123.595 1836.77 137.787C1767.1 151.933 1700.6 184.201 1639.22 228.442C1589.19 264.414 1540.66 310.402 1494.43 355.367C1485.48 364.105 1476.49 372.683 1467.3 380.986C1414.81 428.995 1366.19 463.535 1308.74 470.672C1236.56 479.658 1170.05 432.288 1111.36 377.198C1104.91 371.186 1098.43 365.014 1092.11 358.794C1041.7 309.844 983.674 258.773 914.777 248.729C896.653 246.022 878.038 246.329 858.905 249.489C803.818 258.959 754.178 293.297 704.195 326.556C652.533 360.652 600.735 392.933 544.05 403.721C453.616 421.174 367.042 379.269 295.648 328.293C282.548 319.03 269.682 309.19 257.001 299.465C200.014 255.676 143.625 209.516 75.7919 184.983C-7.5209 154.762 -116.028 168.818 -172.479 238.758" stroke="url(#paint14_linear_11621_25778)" stroke-opacity="0.3" stroke-miterlimit="10"/>
<path d="M2047 151.13C1985.48 115.823 1912.3 107.748 1842.21 118.304C1772.12 128.86 1703.67 157.297 1640.69 198.772C1589.49 232.535 1540.11 276.37 1495 321.973C1486.23 330.817 1477.61 339.613 1468.82 348.296C1418.17 398.408 1370.84 439.613 1312.02 451.371C1237.21 466.362 1167.03 420.654 1106.51 366.51C1099.9 360.552 1093.27 354.433 1086.82 348.428C1035.22 300.23 977.017 249.105 907.972 238.113C889.825 235.25 871.133 235.076 851.819 238.121C796.293 246.876 746.346 281.275 696.134 315.078C644.586 349.785 592.748 383.735 535.89 395.413C444.871 414.213 357.97 371.283 286.719 319.149C273.725 309.529 260.863 299.701 248.131 289.665C191.31 244.871 134.984 198.076 66.6919 173.715C-17.2079 143.881 -127.895 160.607 -182.358 235.45" stroke="url(#paint15_linear_11621_25778)" stroke-opacity="0.3" stroke-miterlimit="10"/>
<path d="M2050.28 139.506C1989.79 103.429 1918.05 92.0788 1847.35 98.9396C1776.82 105.754 1706.61 130.485 1642.04 169.203C1589.49 200.811 1539.62 242.569 1495.3 288.907C1486.71 297.857 1478.31 306.92 1469.88 315.823C1420.9 367.923 1375.04 415.899 1314.84 432.269C1237.44 453.415 1163.7 409.151 1101.2 355.992C1094.28 350.134 1087.52 344.229 1080.92 338.277C1028.12 290.824 969.716 239.478 900.679 227.493C882.481 224.312 863.739 223.819 844.401 226.702C788.277 234.79 738.152 269.047 687.896 303.51C636.304 338.876 584.581 374.449 527.366 386.902C435.575 406.934 348.346 362.975 277.42 309.794C264.402 300.023 251.672 289.998 238.889 279.652C182.104 234.056 125.943 186.254 57.0596 162.269C-27.429 132.817 -140.429 152.416 -192.775 231.952" stroke="url(#paint16_linear_11621_25778)" stroke-opacity="0.3" stroke-miterlimit="10"/>
<path d="M2053.71 127.843C1994.41 90.9485 1923.94 76.2137 1852.79 79.3395C1781.81 82.4185 1709.69 103.498 1643.67 139.42C1589.76 168.719 1539.26 208.612 1496.02 255.433C1487.78 264.441 1479.56 273.611 1471.37 282.94C1424.06 337.027 1379.66 391.763 1318.06 412.577C1238.19 439.66 1160.58 396.931 1096.31 345.027C1089.24 339.221 1082.35 333.529 1075.59 327.63C1021.75 280.871 962.859 229.555 893.831 216.578C875.609 213.241 856.816 212.429 837.27 215.037C780.733 222.574 730.245 256.576 679.787 291.746C628.149 327.771 576.541 364.966 518.995 378.353C426.616 399.73 338.9 354.788 268.271 300.398C255.387 290.43 242.606 280.094 229.983 269.712C173.362 223.106 117.419 174.617 47.8904 150.685C-37.2144 121.453 -152.344 144.034 -202.732 228.305" stroke="url(#paint17_linear_11621_25778)" stroke-opacity="0.3" stroke-miterlimit="10"/>
<path d="M2057.15 116.261C1893.29 10.6386 1643.12 58.0625 1496.51 222.643C1441.28 284.603 1395.23 364.006 1321.12 393.921C1229.85 430.786 1139.49 375.94 1069.9 317.948C1000.31 259.956 924.426 192.909 829.726 204.234C714.459 217.97 624.759 342.614 510.37 370.546C417.406 393.289 329.349 347.339 258.718 292.01C188.087 236.681 123.668 169.085 37.9929 140.413C-47.7087 111.581 -165.175 136.897 -213.562 226.071" stroke="url(#paint18_linear_11621_25778)" stroke-opacity="0.3" stroke-miterlimit="10"/>
<path d="M2054.36 151.036C1893.02 41.5007 1643.03 82.9162 1492.92 243.374C1436.44 303.81 1388.83 381.776 1314.43 409.899C1240.82 437.789 1168.79 406.745 1108.28 362.542C1093.43 351.661 1079.44 340.02 1066.11 328.352C1026.09 293.189 984.383 254.831 937.906 230.486C905.565 213.707 870.722 203.719 832.708 206.431C795.35 209.116 760.278 223.554 725.874 243.002C656.095 282.018 589.279 341.826 512.737 362.018C431.134 383.543 353.87 355.734 288.07 315.452C279.083 310.055 270.384 304.405 261.973 298.501C208.303 261.675 157.66 218.24 98.731 187.511C79.7624 177.684 60.0098 169.097 38.9501 162.579C-47.2318 135.736 -163.286 157.572 -212.026 237.72" stroke="url(#paint19_linear_11621_25778)" stroke-opacity="0.3" stroke-miterlimit="10"/>
<path d="M2051.51 185.676C1892.66 72.2759 1642.84 107.593 1489.47 264.242C1431.76 323.169 1382.44 399.758 1307.75 426.109C1234.01 452.181 1162.57 419.642 1103.34 374.244C1088.94 363.069 1075.08 351.228 1062.17 339.107C1023.28 302.79 983.068 263.506 937.825 237.636C906.455 219.74 872.686 208.265 835.379 209.256C798.859 210.015 764.256 222.294 729.692 239.767C659.62 274.992 591.28 332.539 514.826 354.21C433.625 377.121 357.09 354.657 291.31 320.438C282.457 315.844 273.708 310.884 265.143 306.037C211.175 274.359 159.763 236.215 100.06 208.757C80.9119 199.829 60.9793 192.141 39.8173 185.993C-46.8511 161.162 -161.515 179.391 -210.747 250.579" stroke="url(#paint20_linear_11621_25778)" stroke-opacity="0.3" stroke-miterlimit="10"/>
<path d="M2048.82 220.227C1892.46 102.955 1642.64 132.229 1486.02 285.084C1427.23 342.462 1376.2 417.681 1301.22 442.264C1227.22 466.728 1156.51 432.646 1098.58 386.049C1084.46 374.627 1071.03 362.331 1058.38 349.802C1020.48 312.536 981.715 272.003 938.019 244.513C907.777 225.453 874.794 212.744 838.482 211.764C802.642 210.644 768.508 220.767 733.941 236.22C663.705 267.455 593.842 322.747 517.317 345.945C436.361 370.288 360.578 353.32 294.791 324.996C285.887 321.091 277.142 317.139 268.526 312.981C214.103 286.49 162.078 253.581 101.73 229.183C82.2712 221.359 62.1054 214.248 40.8942 208.79C-46.2621 185.964 -159.511 200.75 -209.104 262.787" stroke="url(#paint21_linear_11621_25778)" stroke-opacity="0.3" stroke-miterlimit="10"/>
<path d="M2046.63 256.021C1892.9 134.753 1643.01 157.993 1482.89 307.031C1422.89 363.161 1370.27 436.93 1294.99 459.777C1220.84 482.458 1150.56 447.013 1094.18 398.871C1080.32 387.017 1067.17 374.45 1054.96 361.602C1018.05 323.312 980.896 281.565 938.419 252.491C909.137 232.273 877.089 218.255 841.604 215.341C806.618 212.447 772.761 220.311 738.182 233.767C667.636 261.26 596.235 314.385 519.935 339.048C439.361 364.811 364.31 353.304 298.311 330.706C289.382 327.642 280.583 324.371 271.942 321.053C217.23 299.812 164.234 272.01 103.224 250.621C83.5785 243.679 63.2267 237.45 41.9066 232.349C-45.7628 211.477 -157.652 222.668 -207.746 275.856" stroke="url(#paint22_linear_11621_25778)" stroke-opacity="0.3" stroke-miterlimit="10"/>
<path d="M2044.58 291.618C1893.29 166.223 1643.49 183.366 1479.93 328.904C1418.67 383.623 1364.53 456.262 1288.94 477.369C1214.64 498.263 1144.91 461.243 1089.8 411.802C1076.22 399.676 1063.49 386.628 1051.57 373.506C1015.61 334.028 979.94 291.269 938.97 260.35C910.675 239.132 879.665 223.433 845.007 218.58C810.848 213.746 777.293 219.506 742.703 230.959C671.661 254.587 599.087 305.769 522.671 331.835C442.504 359.183 367.975 352.877 301.975 336.294C293.019 334.073 284.195 331.645 275.5 329.01C220.473 312.871 166.689 290.303 104.858 271.977C85.0536 266.078 64.4888 260.573 42.9023 255.877C-45.2814 236.963 -155.786 244.71 -206.409 288.866" stroke="url(#paint23_linear_11621_25778)" stroke-opacity="0.3" stroke-miterlimit="10"/>
<path d="M2042.55 327.372C1893.7 197.833 1643.99 208.862 1476.97 350.893C1414.63 404.154 1358.77 475.547 1282.71 494.957C1208.12 514.266 1139.11 475.618 1085.27 424.873C1072.11 412.266 1059.65 398.943 1047.99 385.386C1013.02 344.875 978.805 300.937 939.184 268.215C912.006 245.785 881.772 228.814 847.941 222.016C814.478 215.445 781.329 218.727 746.753 228.332C675.371 248.038 601.282 297.204 524.906 324.632C444.962 353.457 371.321 352.595 305.11 341.769C296.128 340.394 287.25 338.651 278.557 337.021C223.214 325.999 168.642 308.679 106.174 293.538C86.0518 288.732 65.2468 283.792 43.7616 279.728C-44.9376 262.778 -154.085 266.909 -205.029 302.283" stroke="url(#paint24_linear_11621_25778)" stroke-opacity="0.3" stroke-miterlimit="10"/>
<path d="M2040.34 362.953C1893.93 229.242 1644.32 234.299 1473.79 372.505C1410.2 424.354 1352.77 494.459 1276.41 512.12C1201.67 529.634 1133.23 489.555 1080.78 437.289C1067.91 424.405 1055.71 410.644 1044.49 396.762C1010.66 355.164 977.903 310.041 939.656 275.667C913.439 252.065 884.11 233.609 851.289 224.973C818.652 216.451 785.805 217.615 751.058 225.254C679.306 240.866 603.883 288.13 527.414 317.134C447.85 347.396 374.783 352.087 308.543 347.149C299.508 346.461 290.63 345.726 281.884 344.783C226.224 338.891 170.863 326.832 107.572 314.769C87.2631 310.851 66.271 306.799 44.6759 303.095C-44.5411 288.111 -152.335 288.616 -203.785 315.071" stroke="url(#paint25_linear_11621_25778)" stroke-opacity="0.3" stroke-miterlimit="10"/>
<path d="M2038.28 398.437C1894.3 260.522 1644.76 259.423 1470.77 394.129C1406.08 444.52 1346.94 513.388 1270.25 529.296C1195.2 545.058 1127.47 503.329 1076.32 449.9C1063.7 436.576 1051.94 422.487 1040.98 408.164C1008.11 365.356 976.826 319.197 939.927 283.001C914.695 258.381 886.43 238.387 854.276 227.838C822.464 217.356 789.89 216.235 755.154 222.016C683.057 233.683 606.087 278.768 529.681 309.309C450.336 341.063 378.129 351.072 311.887 352.2C302.825 352.362 293.921 352.478 285.121 352.224C229.143 351.478 172.992 344.695 109.033 335.672C88.5634 332.805 67.3568 329.482 45.5203 326.346C-44.2174 313.331 -150.633 310.359 -202.463 327.659" stroke="url(#paint26_linear_11621_25778)" stroke-opacity="0.3" stroke-miterlimit="10"/>
<path d="M2036.1 434.099C1894.55 291.954 1645.07 284.676 1467.74 415.671C1401.79 464.65 1340.92 532.281 1263.92 546.431C1188.71 560.388 1121.4 517.256 1071.64 462.284C1059.3 448.679 1047.99 434.261 1037.28 419.493C1005.39 375.628 975.563 328.265 940.194 290.351C916.079 264.5 888.561 243.053 857.259 230.699C826.114 218.297 793.996 214.997 759.244 218.752C686.798 226.461 608.461 269.477 531.959 301.609C452.99 334.817 381.512 350.37 315.055 357.31C305.967 358.326 297.009 359.133 288.209 359.894C231.756 364.359 174.97 362.823 110.212 357.056C89.3961 355.13 68.1586 352.652 46.2108 349.877C-43.9192 338.629 -149.118 332.213 -201.461 340.536" stroke="url(#paint27_linear_11621_25778)" stroke-opacity="0.3" stroke-miterlimit="10"/>
<path d="M2034.04 469.565C1895.07 323.135 1645.52 309.867 1464.69 437.179C1397.49 484.738 1335.05 551.078 1257.73 563.463C1182.23 575.817 1115.62 531.023 1067.1 474.553C1055.02 460.504 1043.99 445.803 1033.72 430.705C1002.81 385.781 974.602 337.167 940.423 297.463C917.294 270.587 890.681 247.636 860.361 233.262C830.067 219.049 798.352 213.239 763.426 215.007C690.63 218.744 610.767 259.728 534.484 293.363C455.89 328.028 384.985 349.193 318.498 362.08C309.383 363.953 300.399 365.616 291.545 367.071C234.774 376.718 177.039 380.542 111.611 377.836C90.6341 376.968 68.9971 375.109 46.9648 372.859C-43.6887 363.593 -147.512 353.675 -200.213 352.941" stroke="url(#paint28_linear_11621_25778)" stroke-opacity="0.3" stroke-miterlimit="10"/>
<path d="M2032.01 505.245C1895.32 354.62 1645.83 335.134 1461.65 458.694C1393.35 504.779 1329.2 570.027 1251.57 580.641C1175.9 591.176 1109.85 544.766 1062.77 487.074C1051.14 472.697 1040.36 457.551 1030.35 442.008C1000.4 395.863 973.673 346.205 940.869 304.824C918.7 276.76 893.15 252.256 863.524 236.112C834.054 219.921 802.638 211.964 767.695 211.692C694.522 211.28 613.289 250.176 536.91 285.411C458.534 321.583 388.492 348.123 321.845 367.187C312.834 369.709 303.666 372.278 294.786 374.592C237.697 389.439 179.171 398.594 113.073 398.959C91.9082 398.992 70.0826 398.032 47.9657 396.308C-43.2112 389.033 -145.686 375.441 -198.904 365.666" stroke="url(#paint29_linear_11621_25778)" stroke-opacity="0.3" stroke-miterlimit="10"/>
<path d="M2029.8 540.795C1895.69 385.874 1646.1 360.198 1458.44 480.198C1388.87 524.849 1323.16 588.79 1245.2 597.627C1169.22 606.384 1103.9 558.469 1058.06 499.277C1046.68 484.455 1036.35 468.979 1026.63 453.151C997.814 405.9 972.385 355.082 941.087 311.81C919.878 282.554 895.234 256.54 866.59 238.365C837.788 220.237 806.801 209.916 771.866 207.76C698.315 203.186 615.58 240.195 539.261 276.987C461.262 314.623 391.794 346.812 325.092 371.701C316.055 375.085 306.86 378.517 297.769 381.576C240.362 401.641 181.045 416.145 114.12 419.639C92.6359 420.785 70.7529 420.516 48.3668 419.206C-43.334 413.928 -144.434 396.813 -198.198 377.805" stroke="url(#paint30_linear_11621_25778)" stroke-opacity="0.3" stroke-miterlimit="10"/>
<path d="M2027.74 576.354C1896.09 417.349 1646.56 385.421 1455.39 501.676C1384.56 544.884 1317.28 607.507 1238.84 614.608C1162.73 621.697 1097.96 572.162 1053.38 511.633C1042.29 496.53 1032.21 480.608 1022.93 464.451C995.103 416.14 971.132 364.117 941.183 319C920.963 288.715 897.383 261.141 869.406 241.025C841.43 220.909 810.741 208.429 775.789 204.22C701.886 195.634 617.778 230.535 541.336 268.772C463.529 307.759 394.953 345.518 328.092 376.622C319.029 380.871 309.939 384.956 300.691 389.09C242.968 414.387 182.86 434.257 115.292 441.005C93.6198 443.057 71.5215 443.531 49.051 442.751C-43.1733 439.478 -142.924 418.669 -197.05 390.515" stroke="url(#paint31_linear_11621_25778)" stroke-opacity="0.3" stroke-miterlimit="10"/>
<path d="M2025.57 612.154C1896.49 448.687 1647.03 410.651 1452.35 523.145C1380.42 564.857 1311.4 626.204 1232.65 631.515C1156.21 636.816 1092.02 585.821 1048.84 523.744C1038 508.196 1028.37 491.944 1019.34 475.34C992.475 425.807 969.989 372.739 941.576 325.89C922.474 294.363 899.802 265.273 872.52 243.374C845.368 221.265 814.951 206.456 780.008 200.351C705.725 187.578 620.058 220.25 543.732 260.375C466.275 300.669 398.302 344.272 331.572 381.352C322.483 386.467 313.366 391.42 304.065 396.257C246.026 426.803 185.127 452.054 116.732 461.951C94.8979 465.076 72.4266 466.34 49.8714 466.092C-42.8766 464.832 -141.251 440.481 -195.9 403.201" stroke="url(#paint32_linear_11621_25778)" stroke-opacity="0.3" stroke-miterlimit="10"/>
<path d="M2023.51 647.755C1896.71 480.076 1647.31 435.752 1449.29 544.587C1376.1 584.844 1305.5 644.861 1226.43 648.378C1149.83 651.837 1086.19 599.216 1044.44 535.751C1034.04 519.873 1024.67 503.175 1015.92 486.287C990.039 435.692 969.013 381.416 941.95 332.715C923.838 300.154 902.046 269.382 875.774 245.6C849.448 221.492 819.302 204.348 784.367 196.341C709.703 179.369 622.529 210.129 546.264 251.822C469.026 293.636 401.947 342.843 335.005 385.847C325.863 391.669 316.72 397.491 307.392 403.197C249.063 439.17 187.347 469.655 118.124 482.711C95.944 486.795 73.4416 488.922 50.7749 489.045C-42.4977 489.803 -139.523 461.738 -194.537 415.257" stroke="url(#paint33_linear_11621_25778)" stroke-opacity="0.3" stroke-miterlimit="10"/>
<path d="M2021.5 683.568C1897.13 511.636 1647.78 461.014 1446.11 566.262C1371.69 605.22 1299.35 663.944 1219.96 665.661C1143.07 667.485 1080.13 613.192 1039.65 548.391C1029.51 532.068 1020.43 515.087 1012.1 497.706C987.201 446.052 967.636 390.57 942.109 340.133C924.96 306.376 904.102 274.247 878.657 248.464C853.185 222.517 823.468 202.986 788.356 192.957C713.311 171.776 624.789 200.569 548.401 243.714C471.54 287.002 405.014 341.755 338.074 390.977C328.905 397.671 319.736 404.364 310.383 410.941C251.581 452.237 189.074 488.132 119.367 504.423C97.0252 509.585 74.3077 512.461 51.5565 513.119C-42.2394 515.902 -137.887 484.279 -193.452 428.461" stroke="url(#paint34_linear_11621_25778)" stroke-opacity="0.3" stroke-miterlimit="10"/>
<path d="M2019.29 719.252C1897.52 543.007 1648.09 486.279 1443.05 587.672C1367.52 625.116 1293.45 682.544 1213.73 682.457C1136.68 682.429 1074.32 626.671 1035.08 560.365C1025.23 543.759 1016.58 526.447 1008.51 508.619C984.76 455.855 966.499 399.211 942.325 346.917C926.165 312.125 906.347 278.26 881.755 250.634C856.951 222.728 827.663 200.803 792.401 188.91C717.131 163.46 626.942 190.374 550.773 235.045C474.131 279.859 408.5 340.244 341.35 395.422C332.155 402.989 322.933 410.392 313.554 417.843C254.436 464.43 191.138 505.751 120.602 525.218C98.0995 531.461 75.1395 534.924 52.1456 536.166C-42.1751 540.979 -136.472 505.626 -192.564 440.606" stroke="url(#paint35_linear_11621_25778)" stroke-opacity="0.3" stroke-miterlimit="10"/>
<path d="M2017.22 754.535C1897.88 574.016 1648.45 510.885 1439.81 608.366C1363 644.365 1287.33 700.489 1207.27 698.586C1129.88 696.742 1068.21 639.251 1030.26 571.705C992.312 504.158 972.878 425.196 942.423 352.816C911.968 280.435 866.605 211.161 796.292 183.794C720.647 154.244 629.031 178.868 552.778 225.363C476.498 271.694 411.593 337.827 344.248 399.19C277.06 460.505 204.17 519.406 121.574 545.446C5.11735 582.354 -121.612 544.599 -191.673 452.132" stroke="url(#paint36_linear_11621_25778)" stroke-opacity="0.3" stroke-miterlimit="10"/>
<defs>
<linearGradient id="paint0_linear_11621_25778" x1="1868.94" y1="377.103" x2="528.029" y2="-242.379" gradientUnits="userSpaceOnUse">
<stop stop-color="#B45AFA"/>
<stop offset="0.43" stop-color="#6464E4"/>
<stop offset="1" stop-color="#29BCFA"/>
</linearGradient>
<linearGradient id="paint1_linear_11621_25778" x1="1868.99" y1="353.066" x2="545.59" y2="-282.247" gradientUnits="userSpaceOnUse">
<stop stop-color="#B45AFA"/>
<stop offset="0.43" stop-color="#6464E4"/>
<stop offset="1" stop-color="#29BCFA"/>
</linearGradient>
<linearGradient id="paint2_linear_11621_25778" x1="1868.9" y1="329.359" x2="564.277" y2="-321.635" gradientUnits="userSpaceOnUse">
<stop stop-color="#B45AFA"/>
<stop offset="0.43" stop-color="#6464E4"/>
<stop offset="1" stop-color="#29BCFA"/>
</linearGradient>
<linearGradient id="paint3_linear_11621_25778" x1="1868.97" y1="305.638" x2="584.655" y2="-360.609" gradientUnits="userSpaceOnUse">
<stop stop-color="#B45AFA"/>
<stop offset="0.43" stop-color="#6464E4"/>
<stop offset="1" stop-color="#29BCFA"/>
</linearGradient>
<linearGradient id="paint4_linear_11621_25778" x1="1868.97" y1="282.276" x2="606.423" y2="-398.5" gradientUnits="userSpaceOnUse">
<stop stop-color="#B45AFA"/>
<stop offset="0.43" stop-color="#6464E4"/>
<stop offset="1" stop-color="#29BCFA"/>
</linearGradient>
<linearGradient id="paint5_linear_11621_25778" x1="1868.97" y1="259.126" x2="629.005" y2="-435.612" gradientUnits="userSpaceOnUse">
<stop stop-color="#B45AFA"/>
<stop offset="0.43" stop-color="#6464E4"/>
<stop offset="1" stop-color="#29BCFA"/>
</linearGradient>
<linearGradient id="paint6_linear_11621_25778" x1="1869.05" y1="235.19" x2="651.48" y2="-472.117" gradientUnits="userSpaceOnUse">
<stop stop-color="#B45AFA"/>
<stop offset="0.43" stop-color="#6464E4"/>
<stop offset="1" stop-color="#29BCFA"/>
</linearGradient>
<linearGradient id="paint7_linear_11621_25778" x1="1869.01" y1="211.823" x2="674.697" y2="-507.623" gradientUnits="userSpaceOnUse">
<stop stop-color="#B45AFA"/>
<stop offset="0.43" stop-color="#6464E4"/>
<stop offset="1" stop-color="#29BCFA"/>
</linearGradient>
<linearGradient id="paint8_linear_11621_25778" x1="1869.29" y1="188.811" x2="697.838" y2="-541.273" gradientUnits="userSpaceOnUse">
<stop stop-color="#B45AFA"/>
<stop offset="0.43" stop-color="#6464E4"/>
<stop offset="1" stop-color="#29BCFA"/>
</linearGradient>
<linearGradient id="paint9_linear_11621_25778" x1="1869.33" y1="165.615" x2="719.546" y2="-574.297" gradientUnits="userSpaceOnUse">
<stop stop-color="#B45AFA"/>
<stop offset="0.43" stop-color="#6464E4"/>
<stop offset="1" stop-color="#29BCFA"/>
</linearGradient>
<linearGradient id="paint10_linear_11621_25778" x1="1869.74" y1="143.335" x2="741.661" y2="-605.499" gradientUnits="userSpaceOnUse">
<stop stop-color="#B45AFA"/>
<stop offset="0.43" stop-color="#6464E4"/>
<stop offset="1" stop-color="#29BCFA"/>
</linearGradient>
<linearGradient id="paint11_linear_11621_25778" x1="1870.07" y1="121.57" x2="761.749" y2="-635.273" gradientUnits="userSpaceOnUse">
<stop stop-color="#B45AFA"/>
<stop offset="0.43" stop-color="#6464E4"/>
<stop offset="1" stop-color="#29BCFA"/>
</linearGradient>
<linearGradient id="paint12_linear_11621_25778" x1="1870.62" y1="100.78" x2="780.328" y2="-663.209" gradientUnits="userSpaceOnUse">
<stop stop-color="#B45AFA"/>
<stop offset="0.43" stop-color="#6464E4"/>
<stop offset="1" stop-color="#29BCFA"/>
</linearGradient>
<linearGradient id="paint13_linear_11621_25778" x1="1871.63" y1="81.4934" x2="796.649" y2="-688.944" gradientUnits="userSpaceOnUse">
<stop stop-color="#B45AFA"/>
<stop offset="0.43" stop-color="#6464E4"/>
<stop offset="1" stop-color="#29BCFA"/>
</linearGradient>
<linearGradient id="paint14_linear_11621_25778" x1="1872.63" y1="63.0215" x2="810.73" y2="-713.476" gradientUnits="userSpaceOnUse">
<stop stop-color="#B45AFA"/>
<stop offset="0.43" stop-color="#6464E4"/>
<stop offset="1" stop-color="#29BCFA"/>
</linearGradient>
<linearGradient id="paint15_linear_11621_25778" x1="1874.05" y1="45.6276" x2="823.311" y2="-736.316" gradientUnits="userSpaceOnUse">
<stop stop-color="#B45AFA"/>
<stop offset="0.43" stop-color="#6464E4"/>
<stop offset="1" stop-color="#29BCFA"/>
</linearGradient>
<linearGradient id="paint16_linear_11621_25778" x1="1875.41" y1="28.8204" x2="833.864" y2="-758.413" gradientUnits="userSpaceOnUse">
<stop stop-color="#B45AFA"/>
<stop offset="0.43" stop-color="#6464E4"/>
<stop offset="1" stop-color="#29BCFA"/>
</linearGradient>
<linearGradient id="paint17_linear_11621_25778" x1="1876.97" y1="12.0726" x2="844.065" y2="-780.118" gradientUnits="userSpaceOnUse">
<stop stop-color="#B45AFA"/>
<stop offset="0.43" stop-color="#6464E4"/>
<stop offset="1" stop-color="#29BCFA"/>
</linearGradient>
<linearGradient id="paint18_linear_11621_25778" x1="1878.59" y1="-3.62207" x2="852.966" y2="-800.689" gradientUnits="userSpaceOnUse">
<stop stop-color="#B45AFA"/>
<stop offset="0.43" stop-color="#6464E4"/>
<stop offset="1" stop-color="#29BCFA"/>
</linearGradient>
<linearGradient id="paint19_linear_11621_25778" x1="1873.62" y1="14.5156" x2="859.803" y2="-779.703" gradientUnits="userSpaceOnUse">
<stop stop-color="#B45AFA"/>
<stop offset="0.43" stop-color="#6464E4"/>
<stop offset="1" stop-color="#29BCFA"/>
</linearGradient>
<linearGradient id="paint20_linear_11621_25778" x1="1868.59" y1="32.8765" x2="866.73" y2="-758.281" gradientUnits="userSpaceOnUse">
<stop stop-color="#B45AFA"/>
<stop offset="0.43" stop-color="#6464E4"/>
<stop offset="1" stop-color="#29BCFA"/>
</linearGradient>
<linearGradient id="paint21_linear_11621_25778" x1="1863.7" y1="50.9194" x2="872.373" y2="-737.09" gradientUnits="userSpaceOnUse">
<stop stop-color="#B45AFA"/>
<stop offset="0.43" stop-color="#6464E4"/>
<stop offset="1" stop-color="#29BCFA"/>
</linearGradient>
<linearGradient id="paint22_linear_11621_25778" x1="1861.2" y1="81.6255" x2="850.137" y2="-704.802" gradientUnits="userSpaceOnUse">
<stop stop-color="#B45AFA"/>
<stop offset="0.43" stop-color="#6464E4"/>
<stop offset="1" stop-color="#29BCFA"/>
</linearGradient>
<linearGradient id="paint23_linear_11621_25778" x1="1858.83" y1="112.196" x2="827.02" y2="-672.246" gradientUnits="userSpaceOnUse">
<stop stop-color="#B45AFA"/>
<stop offset="0.43" stop-color="#6464E4"/>
<stop offset="1" stop-color="#29BCFA"/>
</linearGradient>
<linearGradient id="paint24_linear_11621_25778" x1="1856.43" y1="142.595" x2="802.996" y2="-639.337" gradientUnits="userSpaceOnUse">
<stop stop-color="#B45AFA"/>
<stop offset="0.43" stop-color="#6464E4"/>
<stop offset="1" stop-color="#29BCFA"/>
</linearGradient>
<linearGradient id="paint25_linear_11621_25778" x1="1853.76" y1="172.195" x2="776.739" y2="-606.546" gradientUnits="userSpaceOnUse">
<stop stop-color="#B45AFA"/>
<stop offset="0.43" stop-color="#6464E4"/>
<stop offset="1" stop-color="#29BCFA"/>
</linearGradient>
<linearGradient id="paint26_linear_11621_25778" x1="1851.11" y1="200.922" x2="748.134" y2="-573.832" gradientUnits="userSpaceOnUse">
<stop stop-color="#B45AFA"/>
<stop offset="0.43" stop-color="#6464E4"/>
<stop offset="1" stop-color="#29BCFA"/>
</linearGradient>
<linearGradient id="paint27_linear_11621_25778" x1="1848.21" y1="229.151" x2="717.526" y2="-540.741" gradientUnits="userSpaceOnUse">
<stop stop-color="#B45AFA"/>
<stop offset="0.43" stop-color="#6464E4"/>
<stop offset="1" stop-color="#29BCFA"/>
</linearGradient>
<linearGradient id="paint28_linear_11621_25778" x1="1845.43" y1="257.083" x2="687.727" y2="-507.057" gradientUnits="userSpaceOnUse">
<stop stop-color="#B45AFA"/>
<stop offset="0.43" stop-color="#6464E4"/>
<stop offset="1" stop-color="#29BCFA"/>
</linearGradient>
<linearGradient id="paint29_linear_11621_25778" x1="1842.69" y1="285.275" x2="659.181" y2="-472.407" gradientUnits="userSpaceOnUse">
<stop stop-color="#B45AFA"/>
<stop offset="0.43" stop-color="#6464E4"/>
<stop offset="1" stop-color="#29BCFA"/>
</linearGradient>
<linearGradient id="paint30_linear_11621_25778" x1="1839.71" y1="313.16" x2="630.739" y2="-437.439" gradientUnits="userSpaceOnUse">
<stop stop-color="#B45AFA"/>
<stop offset="0.43" stop-color="#6464E4"/>
<stop offset="1" stop-color="#29BCFA"/>
</linearGradient>
<linearGradient id="paint31_linear_11621_25778" x1="1836.94" y1="341.271" x2="604.313" y2="-401.707" gradientUnits="userSpaceOnUse">
<stop stop-color="#B45AFA"/>
<stop offset="0.43" stop-color="#6464E4"/>
<stop offset="1" stop-color="#29BCFA"/>
</linearGradient>
<linearGradient id="paint32_linear_11621_25778" x1="1834.05" y1="369.551" x2="578.552" y2="-365.165" gradientUnits="userSpaceOnUse">
<stop stop-color="#B45AFA"/>
<stop offset="0.43" stop-color="#6464E4"/>
<stop offset="1" stop-color="#29BCFA"/>
</linearGradient>
<linearGradient id="paint33_linear_11621_25778" x1="1831.28" y1="397.501" x2="553.521" y2="-328.308" gradientUnits="userSpaceOnUse">
<stop stop-color="#B45AFA"/>
<stop offset="0.43" stop-color="#6464E4"/>
<stop offset="1" stop-color="#29BCFA"/>
</linearGradient>
<linearGradient id="paint34_linear_11621_25778" x1="1828.55" y1="425.958" x2="530.298" y2="-290.954" gradientUnits="userSpaceOnUse">
<stop stop-color="#B45AFA"/>
<stop offset="0.43" stop-color="#6464E4"/>
<stop offset="1" stop-color="#29BCFA"/>
</linearGradient>
<linearGradient id="paint35_linear_11621_25778" x1="1825.59" y1="453.981" x2="506.908" y2="-253.35" gradientUnits="userSpaceOnUse">
<stop stop-color="#B45AFA"/>
<stop offset="0.43" stop-color="#6464E4"/>
<stop offset="1" stop-color="#29BCFA"/>
</linearGradient>
<linearGradient id="paint36_linear_11621_25778" x1="1821.85" y1="475.866" x2="468.179" y2="-216.281" gradientUnits="userSpaceOnUse">
<stop stop-color="#B45AFA"/>
<stop offset="0.43" stop-color="#6464E4"/>
<stop offset="1" stop-color="#29BCFA"/>
</linearGradient>
</defs>
</svg>
