<svg width="48" height="48" viewBox="0 0 48 48" fill="none" xmlns="http://www.w3.org/2000/svg">
<path fill-rule="evenodd" clip-rule="evenodd" d="M24.001 4.00098L23.9969 4.00098C19.394 4.01028 14.9351 5.60701 11.3725 8.5218C8.04054 11.248 5.68343 14.9711 4.63915 19.1315C4.01168 19.5831 3.4747 20.1538 3.06063 20.8145C2.46202 21.7695 2.14453 22.8738 2.14453 24.001C2.14453 25.1281 2.46202 26.2325 3.06063 27.1875C3.47688 27.8516 4.01735 28.4248 4.64909 28.8777C5.72633 33.0058 8.09838 36.6898 11.4283 39.3814C14.9872 42.2581 19.4249 43.8274 24.001 43.8274C28.5771 43.8274 33.0148 42.2581 36.5736 39.3814C39.9036 36.6898 42.2756 33.0058 43.3528 28.8777C43.9846 28.4248 44.5251 27.8516 44.9413 27.1875C45.5399 26.2325 45.8574 25.1281 45.8574 24.001C45.8574 22.8738 45.5399 21.7695 44.9413 20.8145C44.5294 20.1574 43.996 19.5892 43.3728 19.1387C42.6885 16.3001 41.3899 13.642 39.5644 11.3537C38.8756 10.4903 37.6172 10.3487 36.7537 11.0375C35.8903 11.7264 35.7487 12.9847 36.4375 13.8482C38.0481 15.8672 39.1461 18.246 39.6375 20.7816C39.7574 21.4003 40.162 21.9263 40.7292 22.201C41.0673 22.3647 41.3525 22.6205 41.552 22.9388C41.7516 23.2572 41.8574 23.6253 41.8574 24.001C41.8574 24.3767 41.7516 24.7448 41.552 25.0632C41.3525 25.3815 41.0673 25.6372 40.7292 25.801C40.1745 26.0696 39.7746 26.579 39.6454 27.1817C38.8779 30.7612 36.9062 33.9693 34.0591 36.2706C31.212 38.572 27.6618 39.8274 24.001 39.8274C20.3401 39.8274 16.7899 38.572 13.9429 36.2706C11.0958 33.9693 9.12401 30.7612 8.35653 27.1817C8.22731 26.579 7.82746 26.0696 7.27275 25.801C6.93461 25.6372 6.64944 25.3815 6.4499 25.0632C6.25036 24.7448 6.14453 24.3767 6.14453 24.001C6.14453 23.6253 6.25036 23.2572 6.4499 22.9388C6.64944 22.6205 6.93461 22.3647 7.27275 22.201C7.83369 21.9293 8.23591 21.4117 8.36056 20.801C9.09703 17.193 11.0555 13.9495 13.9055 11.6176C16.755 9.28623 20.3213 8.00888 24.003 8.00098C25.6522 8.00135 26.9755 8.45713 27.8324 9.07405C28.6795 9.684 29.001 10.3782 29.001 11.001C29.001 13.1219 27.7143 14.001 27.001 14.001C26.5183 14.001 26.1638 13.8788 25.988 13.7719C25.8743 12.7752 25.0281 12.001 24.001 12.001C22.8964 12.001 22.001 12.8964 22.001 14.001C22.001 15.4787 22.8855 16.539 23.8272 17.1383C24.7564 17.7296 25.8962 18.001 27.001 18.001C30.6877 18.001 33.001 14.4801 33.001 11.001C33.001 8.82376 31.8224 7.01796 30.1696 5.82791C28.5268 4.64508 26.3508 4.00098 24.001 4.00098ZM18 22.001C16.8954 22.001 16 22.8964 16 24.001C16 25.1055 16.8954 26.001 18 26.001H18.02C19.1246 26.001 20.02 25.1055 20.02 24.001C20.02 22.8964 19.1246 22.001 18.02 22.001H18ZM30 22.001C28.8954 22.001 28 22.8964 28 24.001C28 25.1055 28.8954 26.001 30 26.001H30.02C31.1246 26.001 32.02 25.1055 32.02 24.001C32.02 22.8964 31.1246 22.001 30.02 22.001H30ZM18.287 30.971C18.8553 30.0238 20.0838 29.7167 21.0309 30.285C21.6821 30.6757 22.7173 31 24.002 31C25.2866 31 26.3219 30.6757 26.973 30.285C27.9201 29.7167 29.1486 30.0238 29.7169 30.971C30.2852 31.9182 29.9781 33.1467 29.0309 33.715C27.6821 34.5243 25.9173 35 24.002 35C22.0866 35 20.3219 34.5243 18.973 33.715C18.0258 33.1467 17.7187 31.9182 18.287 30.971Z" fill="#C293FF"/>
</svg>
