<svg width="48" height="48" viewBox="0 0 48 48" fill="none" xmlns="http://www.w3.org/2000/svg">
<path fill-rule="evenodd" clip-rule="evenodd" d="M14.8106 3.98633C13.1259 3.98633 11.4578 4.31888 9.90197 4.96493C8.34665 5.61074 6.93406 6.55713 5.74515 7.74985C0.655097 12.8412 0.541918 21.2595 6.57331 27.4039L6.58637 27.4171L22.5864 43.4171C22.9614 43.7921 23.4702 44.0028 24.0006 44.0028C24.531 44.0028 25.0397 43.7921 25.4148 43.4171L41.4148 27.4171L41.4279 27.4039C47.4592 21.2595 47.3461 12.8412 42.256 7.74986C41.0671 6.55714 39.6545 5.61075 38.0992 4.96493C36.5433 4.31888 34.8752 3.98633 33.1906 3.98633C31.5059 3.98633 29.8378 4.31888 28.282 4.96493C26.7261 5.61097 25.3131 6.55779 24.1239 7.75109L24.1239 7.75107L24.1173 7.75778L24.0006 7.87599L23.8839 7.75778L23.8839 7.75777L23.8773 7.75109C22.6881 6.55779 21.2751 5.61097 19.7192 4.96493C18.1633 4.31888 16.4952 3.98633 14.8106 3.98633ZM11.4359 8.65911C12.5056 8.21496 13.6524 7.98633 14.8106 7.98633C15.9688 7.98633 17.1156 8.21496 18.1853 8.65911C19.2535 9.10269 20.2238 9.75252 21.0407 10.5714L21.0439 10.5746L21.1835 10.716L16.3253 15.5897L16.3218 15.5932C15.1588 16.7657 14.5063 18.3502 14.5063 20.0017C14.5063 21.6531 15.1588 23.2376 16.3218 24.4101L16.3333 24.4216C17.5058 25.5846 19.0903 26.2372 20.7418 26.2372C22.3906 26.2372 23.9728 25.5866 25.1448 24.427L29.6601 20.0116L29.6601 20.0116L29.6684 20.0034C30.4173 19.2624 31.4283 18.8468 32.4818 18.8468C33.5337 18.8468 34.5432 19.2612 35.2918 20.0001L35.2951 20.0034L39.2061 23.9144C39.0084 24.1438 38.7997 24.3709 38.5795 24.5955L36.0009 27.1741L33.4146 24.5877C32.6336 23.8067 31.3672 23.8067 30.5862 24.5877C29.8051 25.3688 29.8051 26.6351 30.5862 27.4162L33.1725 30.0025L30.0009 33.1741L27.4146 30.5877C26.6336 29.8067 25.3672 29.8067 24.5862 30.5877C23.8051 31.3688 23.8051 32.6351 24.5862 33.4162L27.1725 36.0025L24.0006 39.1744L9.42164 24.5955C4.78009 19.8614 5.18756 13.9643 8.5748 10.5771L8.57725 10.5746C9.3948 9.75421 10.3663 9.10327 11.4359 8.65911ZM41.3469 20.3984C42.7548 16.7371 41.8591 13.0098 39.4264 10.5771L39.4239 10.5746C38.6064 9.75421 37.6349 9.10327 36.5653 8.65911C35.4956 8.21496 34.3488 7.98633 33.1906 7.98633C32.0324 7.98633 30.8856 8.21496 29.8159 8.65911C28.7476 9.10269 27.7773 9.75252 26.9604 10.5714L26.9573 10.5746L25.4326 12.1191L25.4182 12.1336L19.1617 18.4101L19.1603 18.4116C18.7413 18.8347 18.5063 19.4062 18.5063 20.0017C18.5063 20.5952 18.7397 21.1647 19.156 21.5874C19.5787 22.0037 20.1483 22.2372 20.7418 22.2372C21.338 22.2372 21.91 22.0016 22.3333 21.5817L22.3435 21.5717L26.8595 17.1556C28.3569 15.6764 30.3769 14.8468 32.4818 14.8468C34.5888 14.8468 36.6107 15.678 38.1084 17.16L38.116 17.1674L41.3469 20.3984Z" fill="#C293FF"/>
</svg>
