<svg width="48" height="48" viewBox="0 0 48 48" fill="none" xmlns="http://www.w3.org/2000/svg">
<path fill-rule="evenodd" clip-rule="evenodd" d="M24 12C17.1127 12 10.4669 14.5385 5.33335 19.13C4.51006 19.8664 3.24569 19.796 2.50931 18.9727C1.77293 18.1494 1.84339 16.885 2.66669 16.1486C8.53359 10.9011 16.1287 8 24 8C31.8713 8 39.4664 10.9011 45.3334 16.1486C46.1567 16.885 46.2271 18.1494 45.4907 18.9727C44.7544 19.796 43.49 19.8664 42.6667 19.13C37.5331 14.5385 30.8874 12 24 12ZM11.4 27.4286C14.7647 24.1305 19.2885 22.2832 24 22.2832C28.7116 22.2832 33.2353 24.1305 36.6 27.4286C37.3888 28.2018 38.6551 28.1892 39.4283 27.4003C40.2015 26.6115 40.1888 25.3453 39.4 24.5721C35.2876 20.5411 29.7586 18.2832 24 18.2832C18.2415 18.2832 12.7125 20.5411 8.60002 24.5721C7.8112 25.3453 7.79853 26.6115 8.57173 27.4003C9.34493 28.1892 10.6112 28.2018 11.4 27.4286ZM18.4 34.428C19.8954 32.9622 21.906 32.1411 24 32.1411C26.094 32.1411 28.1046 32.9622 29.6 34.428C30.3888 35.2012 31.6551 35.1885 32.4283 34.3997C33.2015 33.6109 33.1888 32.3446 32.4 31.5714C30.1569 29.3727 27.141 28.1411 24 28.1411C20.859 28.1411 17.8431 29.3727 15.6 31.5714C14.8112 32.3446 14.7985 33.6109 15.5717 34.3997C16.3449 35.1885 17.6112 35.2012 18.4 34.428ZM24.002 38C22.8974 38 22.002 38.8954 22.002 40C22.002 41.1046 22.8974 42 24.002 42H24.022C25.1265 42 26.022 41.1046 26.022 40C26.022 38.8954 25.1265 38 24.022 38H24.002Z" fill="#C293FF"/>
</svg>
