<svg width="25" height="24" viewBox="0 0 25 24" fill="none" xmlns="http://www.w3.org/2000/svg">
<rect x="0.5" width="24" height="24" rx="12" fill="black"/>
<path d="M12.587 5.13776L15.9299 8.44125C15.6262 8.38919 15.3141 8.36244 14.9957 8.36244C11.9393 8.36244 9.46129 10.8401 9.46129 13.8968C9.46129 14.2546 9.49523 14.6044 9.55995 14.9432L6.29845 11.7211C6.17822 11.6141 6.06346 11.5008 5.95473 11.3815C5.23996 10.5956 4.7947 9.55756 4.77054 8.41191C4.71819 5.89655 6.71495 3.81493 9.23032 3.76258C9.26253 3.76201 9.29475 3.76172 9.32696 3.76172C10.6018 3.76172 11.7583 4.2878 12.587 5.13776Z" fill="url(#paint0_linear_2616_28712)" stroke="black" stroke-width="0.841552" stroke-miterlimit="10"/>
<path d="M20.1903 15.8085C19.6274 17.3361 18.4104 18.5471 16.8788 19.1013C16.5552 19.1816 16.2178 19.2276 15.8706 19.2348C15.8381 19.2354 15.8059 19.2359 15.7737 19.2359C14.5325 19.2359 13.4033 18.7369 12.5795 17.9261C12.5662 17.9128 12.553 17.8999 12.5401 17.8866L9.5596 14.9421C9.49488 14.6033 9.46094 14.2535 9.46094 13.8957C9.46094 10.839 11.9389 8.36133 14.9953 8.36133C15.3137 8.36133 15.6258 8.38808 15.9296 8.44014L18.776 11.2529C18.9143 11.374 19.0449 11.5034 19.1678 11.6401C19.87 12.4233 20.3065 13.4516 20.3301 14.5857C20.339 15.008 20.2898 15.4182 20.1903 15.8085Z" fill="url(#paint1_linear_2616_28712)"/>
<path d="M20.1903 15.8085C19.6274 17.3361 18.4104 18.5471 16.8788 19.1013C16.5552 19.1816 16.2178 19.2276 15.8706 19.2348C15.8381 19.2354 15.8059 19.2359 15.7737 19.2359C14.5325 19.2359 13.4033 18.7369 12.5795 17.9261C12.5662 17.9128 12.553 17.8999 12.5401 17.8866L9.5596 14.9421C9.49488 14.6033 9.46094 14.2535 9.46094 13.8957C9.46094 10.839 11.9389 8.36133 14.9953 8.36133C15.3137 8.36133 15.6258 8.38808 15.9296 8.44014L18.776 11.2529C18.9143 11.374 19.0449 11.5034 19.1678 11.6401C19.87 12.4233 20.3065 13.4516 20.3301 14.5857C20.339 15.008 20.2898 15.4182 20.1903 15.8085Z" fill="white" fill-opacity="0.3"/>
<path d="M20.1903 15.8085C19.6274 17.3361 18.4104 18.5471 16.8788 19.1013C16.5552 19.1816 16.2178 19.2276 15.8706 19.2348C15.8381 19.2354 15.8059 19.2359 15.7737 19.2359C14.5325 19.2359 13.4033 18.7369 12.5795 17.9261C12.5662 17.9128 12.553 17.8999 12.5401 17.8866L9.5596 14.9421C9.49488 14.6033 9.46094 14.2535 9.46094 13.8957C9.46094 10.839 11.9389 8.36133 14.9953 8.36133C15.3137 8.36133 15.6258 8.38808 15.9296 8.44014L18.776 11.2529C18.9143 11.374 19.0449 11.5034 19.1678 11.6401C19.87 12.4233 20.3065 13.4516 20.3301 14.5857C20.339 15.008 20.2898 15.4182 20.1903 15.8085Z" stroke="#050505" stroke-width="0.841552" stroke-miterlimit="10"/>
<g style="mix-blend-mode:multiply">
<path d="M20.19 15.7725C20.0212 16.231 19.7934 16.661 19.5155 17.053C18.8683 17.9677 17.9505 18.6773 16.8785 19.0653C16.5549 19.1456 16.2175 19.1916 15.8703 19.1988C15.8378 19.1994 15.8056 19.1999 15.7734 19.1999C14.5322 19.1999 13.403 18.7009 12.5792 17.8901C12.566 17.8768 12.5527 17.8639 12.5398 17.8506L9.55931 14.9061L6.29782 11.684C6.17759 11.577 6.06282 11.4637 5.9541 11.3443C5.69609 11.0607 5.47289 10.7443 5.29254 10.4018C4.9724 9.79514 4.78515 9.10712 4.76991 8.3748C4.75696 7.75926 5.08227 7.08103 5.29253 6.54085C5.06177 7.22171 5.15295 8.81304 6.52189 10.182C6.62141 10.291 6.72611 10.3945 6.83599 10.4923L9.81617 13.4366L12.3359 15.9662C13.7666 17.3969 15.8301 19.0722 17.5536 18.2384C20.1944 16.9575 20.8356 13.6049 18.1835 11.1712C18.0713 11.0461 17.952 10.9279 17.8257 10.8172L15.0563 8.07883L12.0019 5.0601C11.2443 4.28348 10.1872 3.80285 9.0223 3.80285C8.99296 3.80285 8.96362 3.80313 8.934 3.80371C8.54799 3.81176 8.17522 3.87188 7.82258 3.97802C8.26381 3.82384 8.73668 3.73554 9.2294 3.72547C9.26161 3.7249 9.29383 3.72461 9.32604 3.72461C10.6008 3.72461 11.7577 4.25069 12.5864 5.10065L15.9293 8.40414L18.7757 11.2169C18.9141 11.338 19.0447 11.4674 19.1675 11.6041C19.8696 12.3873 20.3059 13.4156 20.3295 14.5497C20.3384 14.972 20.2895 15.3822 20.19 15.7725Z" fill="#C6C6C6"/>
</g>
<g style="mix-blend-mode:overlay" opacity="0.4">
<path d="M8.73338 4.30622C9.96775 4.32013 11.0131 4.74798 11.8064 5.54999L15.0081 8.66916L17.9998 11.596C18.1324 11.711 18.2576 11.8329 18.3751 11.9615C19.0465 12.6998 19.5056 13.5429 19.5164 14.6016C19.5246 15.382 19.5004 16.0167 18.4688 17.3013C18.9906 16.2198 18.3841 14.4214 17.6141 13.5755C16.6481 12.5153 15.0982 10.9087 14.0686 9.90615C12.4946 8.37282 11.2405 7.02887 9.47384 5.69353C8.59346 5.02807 7.84993 4.73722 6.59082 5.06871C6.59082 5.06871 8.20819 4.2681 8.73338 4.30622Z" fill="white"/>
</g>
<g style="mix-blend-mode:overlay" opacity="0.4">
<path d="M15.703 18.3218C14.4468 17.9629 13.1173 16.7341 12.3368 15.9655L9.26322 12.8894L6.5822 10.346C6.45192 10.2361 6.3288 10.1193 6.21313 9.9959C5.55189 9.2877 5.20646 8.50924 5.1844 7.48329C5.17295 6.96056 5.28403 6.5051 5.4859 6.03516C5.4446 7.00341 5.4887 8.05811 6.19346 8.81228C6.48029 9.10745 6.68928 9.38411 6.98843 9.66775C7.79796 10.4452 8.78242 11.4195 9.59724 12.1924C10.8496 13.3808 11.8794 14.5386 13.1317 15.7269C13.1317 15.7269 14.6931 17.7327 17.0495 18.406C16.8812 18.4901 16.2921 18.4901 15.703 18.3218Z" fill="white"/>
</g>
<defs>
<linearGradient id="paint0_linear_2616_28712" x1="15.9299" y1="9.42702" x2="4.76538" y2="9.44543" gradientUnits="userSpaceOnUse">
<stop stop-color="#8962F8"/>
<stop offset="0.349063" stop-color="#A855DD"/>
<stop offset="1" stop-color="#DD3BEB"/>
</linearGradient>
<linearGradient id="paint1_linear_2616_28712" x1="20.3311" y1="13.8711" x2="9.4569" y2="13.8891" gradientUnits="userSpaceOnUse">
<stop stop-color="#8962F8"/>
<stop offset="0.349063" stop-color="#A855DD"/>
<stop offset="1" stop-color="#DD3BEB"/>
</linearGradient>
</defs>
</svg>
